<svg xmlns="http://www.w3.org/2000/svg" version="1.1" xmlns:xlink="http://www.w3.org/1999/xlink" xmlns:svgjs="http://svgjs.dev/svgjs" width="1440" height="850" preserveAspectRatio="none" viewBox="0 0 1440 850"><g mask="url(&quot;#SvgjsMask1147&quot;)" fill="none"><rect width="1440" height="850" x="0" y="0" fill="rgba(255, 255, 255, 1)"></rect><path d="M10.25 -102.76L135.83 -30.26L135.83 114.74L10.25 187.24L-115.33 114.74L-115.33 -30.26zM261.4 767.24L386.98 839.74L386.98 984.74L261.4 1057.24L135.83 984.74L135.83 839.74zM512.56 -102.76L638.14 -30.26L638.14 114.74L512.56 187.24L386.98 114.74L386.98 -30.26zM512.56 332.24L638.14 404.74L638.14 549.74L512.56 622.24L386.98 549.74L386.98 404.74zM638.14 549.74L763.71 622.24L763.71 767.24L638.14 839.74L512.56 767.24L512.56 622.24zM512.56 767.24L638.14 839.74L638.14 984.74L512.56 1057.24L386.98 984.74L386.98 839.74zM763.71 767.24L889.29 839.74L889.29 984.74L763.71 1057.24L638.14 984.74L638.14 839.74zM1014.87 332.24L1140.45 404.74L1140.45 549.74L1014.87 622.24L889.29 549.74L889.29 404.74zM1391.6 549.74L1517.18 622.24L1517.18 767.24L1391.6 839.74L1266.02 767.24L1266.02 622.24z" stroke="rgba(0, 0, 0, 0)" stroke-width="2"></path><path d="M-4.25 -102.76 a14.5 14.5 0 1 0 29 0 a14.5 14.5 0 1 0 -29 0zM121.33 -30.26 a14.5 14.5 0 1 0 29 0 a14.5 14.5 0 1 0 -29 0zM121.33 114.74 a14.5 14.5 0 1 0 29 0 a14.5 14.5 0 1 0 -29 0zM-4.25 187.24 a14.5 14.5 0 1 0 29 0 a14.5 14.5 0 1 0 -29 0zM-129.83 114.74 a14.5 14.5 0 1 0 29 0 a14.5 14.5 0 1 0 -29 0zM-129.83 -30.26 a14.5 14.5 0 1 0 29 0 a14.5 14.5 0 1 0 -29 0zM246.9 767.24 a14.5 14.5 0 1 0 29 0 a14.5 14.5 0 1 0 -29 0zM372.48 839.74 a14.5 14.5 0 1 0 29 0 a14.5 14.5 0 1 0 -29 0zM372.48 984.74 a14.5 14.5 0 1 0 29 0 a14.5 14.5 0 1 0 -29 0zM246.9 1057.24 a14.5 14.5 0 1 0 29 0 a14.5 14.5 0 1 0 -29 0zM121.33 984.74 a14.5 14.5 0 1 0 29 0 a14.5 14.5 0 1 0 -29 0zM121.33 839.74 a14.5 14.5 0 1 0 29 0 a14.5 14.5 0 1 0 -29 0zM498.06 -102.76 a14.5 14.5 0 1 0 29 0 a14.5 14.5 0 1 0 -29 0zM623.64 -30.26 a14.5 14.5 0 1 0 29 0 a14.5 14.5 0 1 0 -29 0zM623.64 114.74 a14.5 14.5 0 1 0 29 0 a14.5 14.5 0 1 0 -29 0zM498.06 187.24 a14.5 14.5 0 1 0 29 0 a14.5 14.5 0 1 0 -29 0zM372.48 114.74 a14.5 14.5 0 1 0 29 0 a14.5 14.5 0 1 0 -29 0zM372.48 -30.26 a14.5 14.5 0 1 0 29 0 a14.5 14.5 0 1 0 -29 0zM498.06 332.24 a14.5 14.5 0 1 0 29 0 a14.5 14.5 0 1 0 -29 0zM623.64 404.74 a14.5 14.5 0 1 0 29 0 a14.5 14.5 0 1 0 -29 0zM623.64 549.74 a14.5 14.5 0 1 0 29 0 a14.5 14.5 0 1 0 -29 0zM498.06 622.24 a14.5 14.5 0 1 0 29 0 a14.5 14.5 0 1 0 -29 0zM372.48 549.74 a14.5 14.5 0 1 0 29 0 a14.5 14.5 0 1 0 -29 0zM372.48 404.74 a14.5 14.5 0 1 0 29 0 a14.5 14.5 0 1 0 -29 0zM749.21 622.24 a14.5 14.5 0 1 0 29 0 a14.5 14.5 0 1 0 -29 0zM749.21 767.24 a14.5 14.5 0 1 0 29 0 a14.5 14.5 0 1 0 -29 0zM623.64 839.74 a14.5 14.5 0 1 0 29 0 a14.5 14.5 0 1 0 -29 0zM498.06 767.24 a14.5 14.5 0 1 0 29 0 a14.5 14.5 0 1 0 -29 0zM623.64 984.74 a14.5 14.5 0 1 0 29 0 a14.5 14.5 0 1 0 -29 0zM498.06 1057.24 a14.5 14.5 0 1 0 29 0 a14.5 14.5 0 1 0 -29 0zM874.79 839.74 a14.5 14.5 0 1 0 29 0 a14.5 14.5 0 1 0 -29 0zM874.79 984.74 a14.5 14.5 0 1 0 29 0 a14.5 14.5 0 1 0 -29 0zM749.21 1057.24 a14.5 14.5 0 1 0 29 0 a14.5 14.5 0 1 0 -29 0zM1000.37 332.24 a14.5 14.5 0 1 0 29 0 a14.5 14.5 0 1 0 -29 0zM1125.95 404.74 a14.5 14.5 0 1 0 29 0 a14.5 14.5 0 1 0 -29 0zM1125.95 549.74 a14.5 14.5 0 1 0 29 0 a14.5 14.5 0 1 0 -29 0zM1000.37 622.24 a14.5 14.5 0 1 0 29 0 a14.5 14.5 0 1 0 -29 0zM874.79 549.74 a14.5 14.5 0 1 0 29 0 a14.5 14.5 0 1 0 -29 0zM874.79 404.74 a14.5 14.5 0 1 0 29 0 a14.5 14.5 0 1 0 -29 0zM1377.1 549.74 a14.5 14.5 0 1 0 29 0 a14.5 14.5 0 1 0 -29 0zM1502.68 622.24 a14.5 14.5 0 1 0 29 0 a14.5 14.5 0 1 0 -29 0zM1502.68 767.24 a14.5 14.5 0 1 0 29 0 a14.5 14.5 0 1 0 -29 0zM1377.1 839.74 a14.5 14.5 0 1 0 29 0 a14.5 14.5 0 1 0 -29 0zM1251.52 767.24 a14.5 14.5 0 1 0 29 0 a14.5 14.5 0 1 0 -29 0zM1251.52 622.24 a14.5 14.5 0 1 0 29 0 a14.5 14.5 0 1 0 -29 0z" fill="rgba(0, 0, 0, 0)"></path><path d="M15.31 58.05L26.57 64.55L26.57 77.55L15.31 84.05L4.05 77.55L4.05 64.55zM4.05 77.55L15.31 84.05L15.31 97.05L4.05 103.55L-7.21 97.05L-7.21 84.05zM4.05 233.55L15.31 240.05L15.31 253.05L4.05 259.55L-7.21 253.05L-7.21 240.05zM4.05 311.55L15.31 318.05L15.31 331.05L4.05 337.55L-7.21 331.05L-7.21 318.05zM15.31 370.05L26.57 376.55L26.57 389.55L15.31 396.05L4.05 389.55L4.05 376.55zM4.05 389.55L15.31 396.05L15.31 409.05L4.05 415.55L-7.21 409.05L-7.21 396.05zM15.31 448.05L26.57 454.55L26.57 467.55L15.31 474.05L4.05 467.55L4.05 454.55zM4.05 545.55L15.31 552.05L15.31 565.05L4.05 571.55L-7.21 565.05L-7.21 552.05zM4.05 584.55L15.31 591.05L15.31 604.05L4.05 610.55L-7.21 604.05L-7.21 591.05zM4.05 662.55L15.31 669.05L15.31 682.05L4.05 688.55L-7.21 682.05L-7.21 669.05zM4.05 701.55L15.31 708.05L15.31 721.05L4.05 727.55L-7.21 721.05L-7.21 708.05zM15.31 721.05L26.57 727.55L26.57 740.55L15.31 747.05L4.05 740.55L4.05 727.55zM26.57 -0.45L37.83 6.05L37.83 19.05L26.57 25.55L15.31 19.05L15.31 6.05zM37.83 370.05L49.08 376.55L49.08 389.55L37.83 396.05L26.57 389.55L26.57 376.55zM37.83 487.05L49.08 493.55L49.08 506.55L37.83 513.05L26.57 506.55L26.57 493.55zM26.57 506.55L37.83 513.05L37.83 526.05L26.57 532.55L15.31 526.05L15.31 513.05zM26.57 584.55L37.83 591.05L37.83 604.05L26.57 610.55L15.31 604.05L15.31 591.05zM26.57 623.55L37.83 630.05L37.83 643.05L26.57 649.55L15.31 643.05L15.31 630.05zM37.83 643.05L49.08 649.55L49.08 662.55L37.83 669.05L26.57 662.55L26.57 649.55zM37.83 682.05L49.08 688.55L49.08 701.55L37.83 708.05L26.57 701.55L26.57 688.55zM26.57 779.55L37.83 786.05L37.83 799.05L26.57 805.55L15.31 799.05L15.31 786.05zM37.83 799.05L49.08 805.55L49.08 818.55L37.83 825.05L26.57 818.55L26.57 805.55zM37.83 838.05L49.08 844.55L49.08 857.55L37.83 864.05L26.57 857.55L26.57 844.55zM49.08 38.55L60.34 45.05L60.34 58.05L49.08 64.55L37.83 58.05L37.83 45.05zM49.08 116.55L60.34 123.05L60.34 136.05L49.08 142.55L37.83 136.05L37.83 123.05zM60.34 214.05L71.6 220.55L71.6 233.55L60.34 240.05L49.08 233.55L49.08 220.55zM60.34 292.05L71.6 298.55L71.6 311.55L60.34 318.05L49.08 311.55L49.08 298.55zM60.34 331.05L71.6 337.55L71.6 350.55L60.34 357.05L49.08 350.55L49.08 337.55zM60.34 370.05L71.6 376.55L71.6 389.55L60.34 396.05L49.08 389.55L49.08 376.55zM49.08 428.55L60.34 435.05L60.34 448.05L49.08 454.55L37.83 448.05L37.83 435.05zM49.08 467.55L60.34 474.05L60.34 487.05L49.08 493.55L37.83 487.05L37.83 474.05zM49.08 506.55L60.34 513.05L60.34 526.05L49.08 532.55L37.83 526.05L37.83 513.05zM60.34 604.05L71.6 610.55L71.6 623.55L60.34 630.05L49.08 623.55L49.08 610.55zM60.34 643.05L71.6 649.55L71.6 662.55L60.34 669.05L49.08 662.55L49.08 649.55zM49.08 662.55L60.34 669.05L60.34 682.05L49.08 688.55L37.83 682.05L37.83 669.05zM60.34 721.05L71.6 727.55L71.6 740.55L60.34 747.05L49.08 740.55L49.08 727.55zM49.08 779.55L60.34 786.05L60.34 799.05L49.08 805.55L37.83 799.05L37.83 786.05zM49.08 857.55L60.34 864.05L60.34 877.05L49.08 883.55L37.83 877.05L37.83 864.05zM71.6 38.55L82.86 45.05L82.86 58.05L71.6 64.55L60.34 58.05L60.34 45.05zM82.86 58.05L94.12 64.55L94.12 77.55L82.86 84.05L71.6 77.55L71.6 64.55zM71.6 77.55L82.86 84.05L82.86 97.05L71.6 103.55L60.34 97.05L60.34 84.05zM82.86 97.05L94.12 103.55L94.12 116.55L82.86 123.05L71.6 116.55L71.6 103.55zM71.6 116.55L82.86 123.05L82.86 136.05L71.6 142.55L60.34 136.05L60.34 123.05zM82.86 136.05L94.12 142.55L94.12 155.55L82.86 162.05L71.6 155.55L71.6 142.55zM82.86 175.05L94.12 181.55L94.12 194.55L82.86 201.05L71.6 194.55L71.6 181.55zM82.86 214.05L94.12 220.55L94.12 233.55L82.86 240.05L71.6 233.55L71.6 220.55zM71.6 272.55L82.86 279.05L82.86 292.05L71.6 298.55L60.34 292.05L60.34 279.05zM71.6 311.55L82.86 318.05L82.86 331.05L71.6 337.55L60.34 331.05L60.34 318.05zM71.6 350.55L82.86 357.05L82.86 370.05L71.6 376.55L60.34 370.05L60.34 357.05zM71.6 389.55L82.86 396.05L82.86 409.05L71.6 415.55L60.34 409.05L60.34 396.05zM71.6 428.55L82.86 435.05L82.86 448.05L71.6 454.55L60.34 448.05L60.34 435.05zM82.86 448.05L94.12 454.55L94.12 467.55L82.86 474.05L71.6 467.55L71.6 454.55zM71.6 467.55L82.86 474.05L82.86 487.05L71.6 493.55L60.34 487.05L60.34 474.05zM71.6 506.55L82.86 513.05L82.86 526.05L71.6 532.55L60.34 526.05L60.34 513.05zM82.86 604.05L94.12 610.55L94.12 623.55L82.86 630.05L71.6 623.55L71.6 610.55zM71.6 623.55L82.86 630.05L82.86 643.05L71.6 649.55L60.34 643.05L60.34 630.05zM71.6 662.55L82.86 669.05L82.86 682.05L71.6 688.55L60.34 682.05L60.34 669.05zM82.86 682.05L94.12 688.55L94.12 701.55L82.86 708.05L71.6 701.55L71.6 688.55zM71.6 818.55L82.86 825.05L82.86 838.05L71.6 844.55L60.34 838.05L60.34 825.05zM94.12 -0.45L105.38 6.05L105.38 19.05L94.12 25.55L82.86 19.05L82.86 6.05zM94.12 77.55L105.38 84.05L105.38 97.05L94.12 103.55L82.86 97.05L82.86 84.05zM105.38 175.05L116.64 181.55L116.64 194.55L105.38 201.05L94.12 194.55L94.12 181.55zM105.38 214.05L116.64 220.55L116.64 233.55L105.38 240.05L94.12 233.55L94.12 220.55zM105.38 253.05L116.64 259.55L116.64 272.55L105.38 279.05L94.12 272.55L94.12 259.55zM105.38 292.05L116.64 298.55L116.64 311.55L105.38 318.05L94.12 311.55L94.12 298.55zM105.38 331.05L116.64 337.55L116.64 350.55L105.38 357.05L94.12 350.55L94.12 337.55zM105.38 487.05L116.64 493.55L116.64 506.55L105.38 513.05L94.12 506.55L94.12 493.55zM94.12 506.55L105.38 513.05L105.38 526.05L94.12 532.55L82.86 526.05L82.86 513.05zM105.38 526.05L116.64 532.55L116.64 545.55L105.38 552.05L94.12 545.55L94.12 532.55zM105.38 565.05L116.64 571.55L116.64 584.55L105.38 591.05L94.12 584.55L94.12 571.55zM94.12 662.55L105.38 669.05L105.38 682.05L94.12 688.55L82.86 682.05L82.86 669.05zM94.12 701.55L105.38 708.05L105.38 721.05L94.12 727.55L82.86 721.05L82.86 708.05zM105.38 799.05L116.64 805.55L116.64 818.55L105.38 825.05L94.12 818.55L94.12 805.55zM116.64 -0.45L127.9 6.05L127.9 19.05L116.64 25.55L105.38 19.05L105.38 6.05zM116.64 77.55L127.9 84.05L127.9 97.05L116.64 103.55L105.38 97.05L105.38 84.05zM116.64 116.55L127.9 123.05L127.9 136.05L116.64 142.55L105.38 136.05L105.38 123.05zM127.9 175.05L139.15 181.55L139.15 194.55L127.9 201.05L116.64 194.55L116.64 181.55zM127.9 214.05L139.15 220.55L139.15 233.55L127.9 240.05L116.64 233.55L116.64 220.55zM116.64 272.55L127.9 279.05L127.9 292.05L116.64 298.55L105.38 292.05L105.38 279.05zM127.9 331.05L139.15 337.55L139.15 350.55L127.9 357.05L116.64 350.55L116.64 337.55zM116.64 350.55L127.9 357.05L127.9 370.05L116.64 376.55L105.38 370.05L105.38 357.05zM116.64 428.55L127.9 435.05L127.9 448.05L116.64 454.55L105.38 448.05L105.38 435.05zM116.64 545.55L127.9 552.05L127.9 565.05L116.64 571.55L105.38 565.05L105.38 552.05zM127.9 565.05L139.15 571.55L139.15 584.55L127.9 591.05L116.64 584.55L116.64 571.55zM127.9 643.05L139.15 649.55L139.15 662.55L127.9 669.05L116.64 662.55L116.64 649.55zM116.64 740.55L127.9 747.05L127.9 760.05L116.64 766.55L105.38 760.05L105.38 747.05zM127.9 799.05L139.15 805.55L139.15 818.55L127.9 825.05L116.64 818.55L116.64 805.55zM127.9 838.05L139.15 844.55L139.15 857.55L127.9 864.05L116.64 857.55L116.64 844.55zM116.64 857.55L127.9 864.05L127.9 877.05L116.64 883.55L105.38 877.05L105.38 864.05zM150.41 19.05L161.67 25.55L161.67 38.55L150.41 45.05L139.15 38.55L139.15 25.55zM139.15 350.55L150.41 357.05L150.41 370.05L139.15 376.55L127.9 370.05L127.9 357.05zM150.41 370.05L161.67 376.55L161.67 389.55L150.41 396.05L139.15 389.55L139.15 376.55zM139.15 428.55L150.41 435.05L150.41 448.05L139.15 454.55L127.9 448.05L127.9 435.05zM150.41 448.05L161.67 454.55L161.67 467.55L150.41 474.05L139.15 467.55L139.15 454.55zM139.15 506.55L150.41 513.05L150.41 526.05L139.15 532.55L127.9 526.05L127.9 513.05zM150.41 526.05L161.67 532.55L161.67 545.55L150.41 552.05L139.15 545.55L139.15 532.55zM139.15 545.55L150.41 552.05L150.41 565.05L139.15 571.55L127.9 565.05L127.9 552.05zM150.41 604.05L161.67 610.55L161.67 623.55L150.41 630.05L139.15 623.55L139.15 610.55zM139.15 818.55L150.41 825.05L150.41 838.05L139.15 844.55L127.9 838.05L127.9 825.05zM139.15 857.55L150.41 864.05L150.41 877.05L139.15 883.55L127.9 877.05L127.9 864.05zM172.93 19.05L184.19 25.55L184.19 38.55L172.93 45.05L161.67 38.55L161.67 25.55zM161.67 38.55L172.93 45.05L172.93 58.05L161.67 64.55L150.41 58.05L150.41 45.05zM161.67 77.55L172.93 84.05L172.93 97.05L161.67 103.55L150.41 97.05L150.41 84.05zM172.93 97.05L184.19 103.55L184.19 116.55L172.93 123.05L161.67 116.55L161.67 103.55zM172.93 136.05L184.19 142.55L184.19 155.55L172.93 162.05L161.67 155.55L161.67 142.55zM172.93 175.05L184.19 181.55L184.19 194.55L172.93 201.05L161.67 194.55L161.67 181.55zM161.67 194.55L172.93 201.05L172.93 214.05L161.67 220.55L150.41 214.05L150.41 201.05zM161.67 233.55L172.93 240.05L172.93 253.05L161.67 259.55L150.41 253.05L150.41 240.05zM161.67 272.55L172.93 279.05L172.93 292.05L161.67 298.55L150.41 292.05L150.41 279.05zM172.93 292.05L184.19 298.55L184.19 311.55L172.93 318.05L161.67 311.55L161.67 298.55zM172.93 331.05L184.19 337.55L184.19 350.55L172.93 357.05L161.67 350.55L161.67 337.55zM172.93 370.05L184.19 376.55L184.19 389.55L172.93 396.05L161.67 389.55L161.67 376.55zM172.93 448.05L184.19 454.55L184.19 467.55L172.93 474.05L161.67 467.55L161.67 454.55zM172.93 487.05L184.19 493.55L184.19 506.55L172.93 513.05L161.67 506.55L161.67 493.55zM161.67 506.55L172.93 513.05L172.93 526.05L161.67 532.55L150.41 526.05L150.41 513.05zM172.93 526.05L184.19 532.55L184.19 545.55L172.93 552.05L161.67 545.55L161.67 532.55zM161.67 545.55L172.93 552.05L172.93 565.05L161.67 571.55L150.41 565.05L150.41 552.05zM161.67 584.55L172.93 591.05L172.93 604.05L161.67 610.55L150.41 604.05L150.41 591.05zM161.67 662.55L172.93 669.05L172.93 682.05L161.67 688.55L150.41 682.05L150.41 669.05zM172.93 682.05L184.19 688.55L184.19 701.55L172.93 708.05L161.67 701.55L161.67 688.55zM172.93 721.05L184.19 727.55L184.19 740.55L172.93 747.05L161.67 740.55L161.67 727.55zM161.67 740.55L172.93 747.05L172.93 760.05L161.67 766.55L150.41 760.05L150.41 747.05zM161.67 818.55L172.93 825.05L172.93 838.05L161.67 844.55L150.41 838.05L150.41 825.05zM184.19 -0.45L195.45 6.05L195.45 19.05L184.19 25.55L172.93 19.05L172.93 6.05zM184.19 77.55L195.45 84.05L195.45 97.05L184.19 103.55L172.93 97.05L172.93 84.05zM195.45 136.05L206.71 142.55L206.71 155.55L195.45 162.05L184.19 155.55L184.19 142.55zM195.45 175.05L206.71 181.55L206.71 194.55L195.45 201.05L184.19 194.55L184.19 181.55zM184.19 233.55L195.45 240.05L195.45 253.05L184.19 259.55L172.93 253.05L172.93 240.05zM184.19 272.55L195.45 279.05L195.45 292.05L184.19 298.55L172.93 292.05L172.93 279.05zM195.45 292.05L206.71 298.55L206.71 311.55L195.45 318.05L184.19 311.55L184.19 298.55zM195.45 526.05L206.71 532.55L206.71 545.55L195.45 552.05L184.19 545.55L184.19 532.55zM184.19 545.55L195.45 552.05L195.45 565.05L184.19 571.55L172.93 565.05L172.93 552.05zM195.45 565.05L206.71 571.55L206.71 584.55L195.45 591.05L184.19 584.55L184.19 571.55zM195.45 682.05L206.71 688.55L206.71 701.55L195.45 708.05L184.19 701.55L184.19 688.55zM195.45 721.05L206.71 727.55L206.71 740.55L195.45 747.05L184.19 740.55L184.19 727.55zM184.19 740.55L195.45 747.05L195.45 760.05L184.19 766.55L172.93 760.05L172.93 747.05zM195.45 799.05L206.71 805.55L206.71 818.55L195.45 825.05L184.19 818.55L184.19 805.55zM184.19 818.55L195.45 825.05L195.45 838.05L184.19 844.55L172.93 838.05L172.93 825.05zM206.71 155.55L217.96 162.05L217.96 175.05L206.71 181.55L195.45 175.05L195.45 162.05zM217.96 175.05L229.22 181.55L229.22 194.55L217.96 201.05L206.71 194.55L206.71 181.55zM217.96 253.05L229.22 259.55L229.22 272.55L217.96 279.05L206.71 272.55L206.71 259.55zM217.96 292.05L229.22 298.55L229.22 311.55L217.96 318.05L206.71 311.55L206.71 298.55zM206.71 467.55L217.96 474.05L217.96 487.05L206.71 493.55L195.45 487.05L195.45 474.05zM206.71 506.55L217.96 513.05L217.96 526.05L206.71 532.55L195.45 526.05L195.45 513.05zM206.71 545.55L217.96 552.05L217.96 565.05L206.71 571.55L195.45 565.05L195.45 552.05zM217.96 565.05L229.22 571.55L229.22 584.55L217.96 591.05L206.71 584.55L206.71 571.55zM206.71 623.55L217.96 630.05L217.96 643.05L206.71 649.55L195.45 643.05L195.45 630.05zM217.96 643.05L229.22 649.55L229.22 662.55L217.96 669.05L206.71 662.55L206.71 649.55zM217.96 721.05L229.22 727.55L229.22 740.55L217.96 747.05L206.71 740.55L206.71 727.55zM217.96 799.05L229.22 805.55L229.22 818.55L217.96 825.05L206.71 818.55L206.71 805.55zM229.22 38.55L240.48 45.05L240.48 58.05L229.22 64.55L217.96 58.05L217.96 45.05zM240.48 58.05L251.74 64.55L251.74 77.55L240.48 84.05L229.22 77.55L229.22 64.55zM240.48 97.05L251.74 103.55L251.74 116.55L240.48 123.05L229.22 116.55L229.22 103.55zM229.22 155.55L240.48 162.05L240.48 175.05L229.22 181.55L217.96 175.05L217.96 162.05zM229.22 194.55L240.48 201.05L240.48 214.05L229.22 220.55L217.96 214.05L217.96 201.05zM240.48 214.05L251.74 220.55L251.74 233.55L240.48 240.05L229.22 233.55L229.22 220.55zM229.22 233.55L240.48 240.05L240.48 253.05L229.22 259.55L217.96 253.05L217.96 240.05zM229.22 272.55L240.48 279.05L240.48 292.05L229.22 298.55L217.96 292.05L217.96 279.05zM229.22 350.55L240.48 357.05L240.48 370.05L229.22 376.55L217.96 370.05L217.96 357.05zM240.48 409.05L251.74 415.55L251.74 428.55L240.48 435.05L229.22 428.55L229.22 415.55zM229.22 428.55L240.48 435.05L240.48 448.05L229.22 454.55L217.96 448.05L217.96 435.05zM229.22 506.55L240.48 513.05L240.48 526.05L229.22 532.55L217.96 526.05L217.96 513.05zM229.22 545.55L240.48 552.05L240.48 565.05L229.22 571.55L217.96 565.05L217.96 552.05zM229.22 584.55L240.48 591.05L240.48 604.05L229.22 610.55L217.96 604.05L217.96 591.05zM229.22 662.55L240.48 669.05L240.48 682.05L229.22 688.55L217.96 682.05L217.96 669.05zM240.48 682.05L251.74 688.55L251.74 701.55L240.48 708.05L229.22 701.55L229.22 688.55zM240.48 760.05L251.74 766.55L251.74 779.55L240.48 786.05L229.22 779.55L229.22 766.55zM229.22 779.55L240.48 786.05L240.48 799.05L229.22 805.55L217.96 799.05L217.96 786.05zM240.48 799.05L251.74 805.55L251.74 818.55L240.48 825.05L229.22 818.55L229.22 805.55zM251.74 116.55L263 123.05L263 136.05L251.74 142.55L240.48 136.05L240.48 123.05zM251.74 155.55L263 162.05L263 175.05L251.74 181.55L240.48 175.05L240.48 162.05zM263 175.05L274.26 181.55L274.26 194.55L263 201.05L251.74 194.55L251.74 181.55zM251.74 194.55L263 201.05L263 214.05L251.74 220.55L240.48 214.05L240.48 201.05zM263 214.05L274.26 220.55L274.26 233.55L263 240.05L251.74 233.55L251.74 220.55zM263 253.05L274.26 259.55L274.26 272.55L263 279.05L251.74 272.55L251.74 259.55zM251.74 272.55L263 279.05L263 292.05L251.74 298.55L240.48 292.05L240.48 279.05zM251.74 311.55L263 318.05L263 331.05L251.74 337.55L240.48 331.05L240.48 318.05zM263 331.05L274.26 337.55L274.26 350.55L263 357.05L251.74 350.55L251.74 337.55zM251.74 428.55L263 435.05L263 448.05L251.74 454.55L240.48 448.05L240.48 435.05zM251.74 506.55L263 513.05L263 526.05L251.74 532.55L240.48 526.05L240.48 513.05zM251.74 545.55L263 552.05L263 565.05L251.74 571.55L240.48 565.05L240.48 552.05zM263 565.05L274.26 571.55L274.26 584.55L263 591.05L251.74 584.55L251.74 571.55zM251.74 584.55L263 591.05L263 604.05L251.74 610.55L240.48 604.05L240.48 591.05zM251.74 623.55L263 630.05L263 643.05L251.74 649.55L240.48 643.05L240.48 630.05zM263 643.05L274.26 649.55L274.26 662.55L263 669.05L251.74 662.55L251.74 649.55zM251.74 662.55L263 669.05L263 682.05L251.74 688.55L240.48 682.05L240.48 669.05zM251.74 701.55L263 708.05L263 721.05L251.74 727.55L240.48 721.05L240.48 708.05zM251.74 740.55L263 747.05L263 760.05L251.74 766.55L240.48 760.05L240.48 747.05zM263 760.05L274.26 766.55L274.26 779.55L263 786.05L251.74 779.55L251.74 766.55zM251.74 818.55L263 825.05L263 838.05L251.74 844.55L240.48 838.05L240.48 825.05zM263 838.05L274.26 844.55L274.26 857.55L263 864.05L251.74 857.55L251.74 844.55zM274.26 -0.45L285.52 6.05L285.52 19.05L274.26 25.55L263 19.05L263 6.05zM285.52 19.05L296.77 25.55L296.77 38.55L285.52 45.05L274.26 38.55L274.26 25.55zM274.26 38.55L285.52 45.05L285.52 58.05L274.26 64.55L263 58.05L263 45.05zM285.52 58.05L296.77 64.55L296.77 77.55L285.52 84.05L274.26 77.55L274.26 64.55zM274.26 350.55L285.52 357.05L285.52 370.05L274.26 376.55L263 370.05L263 357.05zM285.52 370.05L296.77 376.55L296.77 389.55L285.52 396.05L274.26 389.55L274.26 376.55zM285.52 409.05L296.77 415.55L296.77 428.55L285.52 435.05L274.26 428.55L274.26 415.55zM285.52 448.05L296.77 454.55L296.77 467.55L285.52 474.05L274.26 467.55L274.26 454.55zM274.26 467.55L285.52 474.05L285.52 487.05L274.26 493.55L263 487.05L263 474.05zM274.26 545.55L285.52 552.05L285.52 565.05L274.26 571.55L263 565.05L263 552.05zM274.26 584.55L285.52 591.05L285.52 604.05L274.26 610.55L263 604.05L263 591.05zM285.52 643.05L296.77 649.55L296.77 662.55L285.52 669.05L274.26 662.55L274.26 649.55zM285.52 721.05L296.77 727.55L296.77 740.55L285.52 747.05L274.26 740.55L274.26 727.55zM285.52 760.05L296.77 766.55L296.77 779.55L285.52 786.05L274.26 779.55L274.26 766.55zM274.26 818.55L285.52 825.05L285.52 838.05L274.26 844.55L263 838.05L263 825.05zM285.52 838.05L296.77 844.55L296.77 857.55L285.52 864.05L274.26 857.55L274.26 844.55zM308.03 19.05L319.29 25.55L319.29 38.55L308.03 45.05L296.77 38.55L296.77 25.55zM308.03 97.05L319.29 103.55L319.29 116.55L308.03 123.05L296.77 116.55L296.77 103.55zM296.77 116.55L308.03 123.05L308.03 136.05L296.77 142.55L285.52 136.05L285.52 123.05zM296.77 155.55L308.03 162.05L308.03 175.05L296.77 181.55L285.52 175.05L285.52 162.05zM296.77 233.55L308.03 240.05L308.03 253.05L296.77 259.55L285.52 253.05L285.52 240.05zM296.77 272.55L308.03 279.05L308.03 292.05L296.77 298.55L285.52 292.05L285.52 279.05zM308.03 292.05L319.29 298.55L319.29 311.55L308.03 318.05L296.77 311.55L296.77 298.55zM308.03 409.05L319.29 415.55L319.29 428.55L308.03 435.05L296.77 428.55L296.77 415.55zM308.03 448.05L319.29 454.55L319.29 467.55L308.03 474.05L296.77 467.55L296.77 454.55zM296.77 506.55L308.03 513.05L308.03 526.05L296.77 532.55L285.52 526.05L285.52 513.05zM308.03 643.05L319.29 649.55L319.29 662.55L308.03 669.05L296.77 662.55L296.77 649.55zM308.03 682.05L319.29 688.55L319.29 701.55L308.03 708.05L296.77 701.55L296.77 688.55zM296.77 701.55L308.03 708.05L308.03 721.05L296.77 727.55L285.52 721.05L285.52 708.05zM319.29 38.55L330.55 45.05L330.55 58.05L319.29 64.55L308.03 58.05L308.03 45.05zM330.55 214.05L341.81 220.55L341.81 233.55L330.55 240.05L319.29 233.55L319.29 220.55zM319.29 233.55L330.55 240.05L330.55 253.05L319.29 259.55L308.03 253.05L308.03 240.05zM319.29 272.55L330.55 279.05L330.55 292.05L319.29 298.55L308.03 292.05L308.03 279.05zM319.29 311.55L330.55 318.05L330.55 331.05L319.29 337.55L308.03 331.05L308.03 318.05zM330.55 331.05L341.81 337.55L341.81 350.55L330.55 357.05L319.29 350.55L319.29 337.55zM319.29 350.55L330.55 357.05L330.55 370.05L319.29 376.55L308.03 370.05L308.03 357.05zM319.29 389.55L330.55 396.05L330.55 409.05L319.29 415.55L308.03 409.05L308.03 396.05zM330.55 409.05L341.81 415.55L341.81 428.55L330.55 435.05L319.29 428.55L319.29 415.55zM330.55 448.05L341.81 454.55L341.81 467.55L330.55 474.05L319.29 467.55L319.29 454.55zM319.29 623.55L330.55 630.05L330.55 643.05L319.29 649.55L308.03 643.05L308.03 630.05zM330.55 643.05L341.81 649.55L341.81 662.55L330.55 669.05L319.29 662.55L319.29 649.55zM319.29 701.55L330.55 708.05L330.55 721.05L319.29 727.55L308.03 721.05L308.03 708.05zM330.55 721.05L341.81 727.55L341.81 740.55L330.55 747.05L319.29 740.55L319.29 727.55zM319.29 818.55L330.55 825.05L330.55 838.05L319.29 844.55L308.03 838.05L308.03 825.05zM341.81 77.55L353.07 84.05L353.07 97.05L341.81 103.55L330.55 97.05L330.55 84.05zM353.07 136.05L364.33 142.55L364.33 155.55L353.07 162.05L341.81 155.55L341.81 142.55zM341.81 194.55L353.07 201.05L353.07 214.05L341.81 220.55L330.55 214.05L330.55 201.05zM341.81 272.55L353.07 279.05L353.07 292.05L341.81 298.55L330.55 292.05L330.55 279.05zM353.07 292.05L364.33 298.55L364.33 311.55L353.07 318.05L341.81 311.55L341.81 298.55zM341.81 350.55L353.07 357.05L353.07 370.05L341.81 376.55L330.55 370.05L330.55 357.05zM353.07 370.05L364.33 376.55L364.33 389.55L353.07 396.05L341.81 389.55L341.81 376.55zM353.07 409.05L364.33 415.55L364.33 428.55L353.07 435.05L341.81 428.55L341.81 415.55zM353.07 487.05L364.33 493.55L364.33 506.55L353.07 513.05L341.81 506.55L341.81 493.55zM341.81 506.55L353.07 513.05L353.07 526.05L341.81 532.55L330.55 526.05L330.55 513.05zM353.07 526.05L364.33 532.55L364.33 545.55L353.07 552.05L341.81 545.55L341.81 532.55zM353.07 643.05L364.33 649.55L364.33 662.55L353.07 669.05L341.81 662.55L341.81 649.55zM353.07 682.05L364.33 688.55L364.33 701.55L353.07 708.05L341.81 701.55L341.81 688.55zM341.81 701.55L353.07 708.05L353.07 721.05L341.81 727.55L330.55 721.05L330.55 708.05zM364.33 -0.45L375.59 6.05L375.59 19.05L364.33 25.55L353.07 19.05L353.07 6.05zM364.33 38.55L375.59 45.05L375.59 58.05L364.33 64.55L353.07 58.05L353.07 45.05zM375.59 97.05L386.84 103.55L386.84 116.55L375.59 123.05L364.33 116.55L364.33 103.55zM364.33 155.55L375.59 162.05L375.59 175.05L364.33 181.55L353.07 175.05L353.07 162.05zM375.59 214.05L386.84 220.55L386.84 233.55L375.59 240.05L364.33 233.55L364.33 220.55zM364.33 272.55L375.59 279.05L375.59 292.05L364.33 298.55L353.07 292.05L353.07 279.05zM364.33 311.55L375.59 318.05L375.59 331.05L364.33 337.55L353.07 331.05L353.07 318.05zM364.33 350.55L375.59 357.05L375.59 370.05L364.33 376.55L353.07 370.05L353.07 357.05zM375.59 448.05L386.84 454.55L386.84 467.55L375.59 474.05L364.33 467.55L364.33 454.55zM375.59 487.05L386.84 493.55L386.84 506.55L375.59 513.05L364.33 506.55L364.33 493.55zM364.33 545.55L375.59 552.05L375.59 565.05L364.33 571.55L353.07 565.05L353.07 552.05zM375.59 565.05L386.84 571.55L386.84 584.55L375.59 591.05L364.33 584.55L364.33 571.55zM364.33 623.55L375.59 630.05L375.59 643.05L364.33 649.55L353.07 643.05L353.07 630.05zM375.59 643.05L386.84 649.55L386.84 662.55L375.59 669.05L364.33 662.55L364.33 649.55zM364.33 701.55L375.59 708.05L375.59 721.05L364.33 727.55L353.07 721.05L353.07 708.05zM375.59 838.05L386.84 844.55L386.84 857.55L375.59 864.05L364.33 857.55L364.33 844.55zM386.84 155.55L398.1 162.05L398.1 175.05L386.84 181.55L375.59 175.05L375.59 162.05zM398.1 175.05L409.36 181.55L409.36 194.55L398.1 201.05L386.84 194.55L386.84 181.55zM386.84 233.55L398.1 240.05L398.1 253.05L386.84 259.55L375.59 253.05L375.59 240.05zM386.84 272.55L398.1 279.05L398.1 292.05L386.84 298.55L375.59 292.05L375.59 279.05zM386.84 311.55L398.1 318.05L398.1 331.05L386.84 337.55L375.59 331.05L375.59 318.05zM398.1 331.05L409.36 337.55L409.36 350.55L398.1 357.05L386.84 350.55L386.84 337.55zM398.1 370.05L409.36 376.55L409.36 389.55L398.1 396.05L386.84 389.55L386.84 376.55zM386.84 389.55L398.1 396.05L398.1 409.05L386.84 415.55L375.59 409.05L375.59 396.05zM386.84 428.55L398.1 435.05L398.1 448.05L386.84 454.55L375.59 448.05L375.59 435.05zM398.1 487.05L409.36 493.55L409.36 506.55L398.1 513.05L386.84 506.55L386.84 493.55zM386.84 506.55L398.1 513.05L398.1 526.05L386.84 532.55L375.59 526.05L375.59 513.05zM398.1 565.05L409.36 571.55L409.36 584.55L398.1 591.05L386.84 584.55L386.84 571.55zM386.84 623.55L398.1 630.05L398.1 643.05L386.84 649.55L375.59 643.05L375.59 630.05zM398.1 682.05L409.36 688.55L409.36 701.55L398.1 708.05L386.84 701.55L386.84 688.55zM386.84 701.55L398.1 708.05L398.1 721.05L386.84 727.55L375.59 721.05L375.59 708.05zM420.62 19.05L431.88 25.55L431.88 38.55L420.62 45.05L409.36 38.55L409.36 25.55zM420.62 58.05L431.88 64.55L431.88 77.55L420.62 84.05L409.36 77.55L409.36 64.55zM420.62 97.05L431.88 103.55L431.88 116.55L420.62 123.05L409.36 116.55L409.36 103.55zM409.36 116.55L420.62 123.05L420.62 136.05L409.36 142.55L398.1 136.05L398.1 123.05zM420.62 136.05L431.88 142.55L431.88 155.55L420.62 162.05L409.36 155.55L409.36 142.55zM409.36 194.55L420.62 201.05L420.62 214.05L409.36 220.55L398.1 214.05L398.1 201.05zM420.62 214.05L431.88 220.55L431.88 233.55L420.62 240.05L409.36 233.55L409.36 220.55zM409.36 233.55L420.62 240.05L420.62 253.05L409.36 259.55L398.1 253.05L398.1 240.05zM409.36 272.55L420.62 279.05L420.62 292.05L409.36 298.55L398.1 292.05L398.1 279.05zM409.36 311.55L420.62 318.05L420.62 331.05L409.36 337.55L398.1 331.05L398.1 318.05zM409.36 350.55L420.62 357.05L420.62 370.05L409.36 376.55L398.1 370.05L398.1 357.05zM409.36 389.55L420.62 396.05L420.62 409.05L409.36 415.55L398.1 409.05L398.1 396.05zM409.36 467.55L420.62 474.05L420.62 487.05L409.36 493.55L398.1 487.05L398.1 474.05zM409.36 545.55L420.62 552.05L420.62 565.05L409.36 571.55L398.1 565.05L398.1 552.05zM420.62 604.05L431.88 610.55L431.88 623.55L420.62 630.05L409.36 623.55L409.36 610.55zM409.36 623.55L420.62 630.05L420.62 643.05L409.36 649.55L398.1 643.05L398.1 630.05zM409.36 662.55L420.62 669.05L420.62 682.05L409.36 688.55L398.1 682.05L398.1 669.05zM420.62 682.05L431.88 688.55L431.88 701.55L420.62 708.05L409.36 701.55L409.36 688.55zM409.36 701.55L420.62 708.05L420.62 721.05L409.36 727.55L398.1 721.05L398.1 708.05zM420.62 760.05L431.88 766.55L431.88 779.55L420.62 786.05L409.36 779.55L409.36 766.55zM409.36 818.55L420.62 825.05L420.62 838.05L409.36 844.55L398.1 838.05L398.1 825.05zM409.36 857.55L420.62 864.05L420.62 877.05L409.36 883.55L398.1 877.05L398.1 864.05zM431.88 -0.45L443.14 6.05L443.14 19.05L431.88 25.55L420.62 19.05L420.62 6.05zM431.88 38.55L443.14 45.05L443.14 58.05L431.88 64.55L420.62 58.05L420.62 45.05zM443.14 58.05L454.4 64.55L454.4 77.55L443.14 84.05L431.88 77.55L431.88 64.55zM443.14 175.05L454.4 181.55L454.4 194.55L443.14 201.05L431.88 194.55L431.88 181.55zM431.88 194.55L443.14 201.05L443.14 214.05L431.88 220.55L420.62 214.05L420.62 201.05zM443.14 214.05L454.4 220.55L454.4 233.55L443.14 240.05L431.88 233.55L431.88 220.55zM431.88 311.55L443.14 318.05L443.14 331.05L431.88 337.55L420.62 331.05L420.62 318.05zM443.14 370.05L454.4 376.55L454.4 389.55L443.14 396.05L431.88 389.55L431.88 376.55zM431.88 389.55L443.14 396.05L443.14 409.05L431.88 415.55L420.62 409.05L420.62 396.05zM443.14 409.05L454.4 415.55L454.4 428.55L443.14 435.05L431.88 428.55L431.88 415.55zM431.88 428.55L443.14 435.05L443.14 448.05L431.88 454.55L420.62 448.05L420.62 435.05zM431.88 545.55L443.14 552.05L443.14 565.05L431.88 571.55L420.62 565.05L420.62 552.05zM443.14 565.05L454.4 571.55L454.4 584.55L443.14 591.05L431.88 584.55L431.88 571.55zM431.88 584.55L443.14 591.05L443.14 604.05L431.88 610.55L420.62 604.05L420.62 591.05zM443.14 604.05L454.4 610.55L454.4 623.55L443.14 630.05L431.88 623.55L431.88 610.55zM431.88 623.55L443.14 630.05L443.14 643.05L431.88 649.55L420.62 643.05L420.62 630.05zM431.88 662.55L443.14 669.05L443.14 682.05L431.88 688.55L420.62 682.05L420.62 669.05zM443.14 721.05L454.4 727.55L454.4 740.55L443.14 747.05L431.88 740.55L431.88 727.55zM443.14 760.05L454.4 766.55L454.4 779.55L443.14 786.05L431.88 779.55L431.88 766.55zM431.88 818.55L443.14 825.05L443.14 838.05L431.88 844.55L420.62 838.05L420.62 825.05zM454.4 38.55L465.65 45.05L465.65 58.05L454.4 64.55L443.14 58.05L443.14 45.05zM465.65 97.05L476.91 103.55L476.91 116.55L465.65 123.05L454.4 116.55L454.4 103.55zM454.4 116.55L465.65 123.05L465.65 136.05L454.4 142.55L443.14 136.05L443.14 123.05zM465.65 136.05L476.91 142.55L476.91 155.55L465.65 162.05L454.4 155.55L454.4 142.55zM465.65 214.05L476.91 220.55L476.91 233.55L465.65 240.05L454.4 233.55L454.4 220.55zM454.4 350.55L465.65 357.05L465.65 370.05L454.4 376.55L443.14 370.05L443.14 357.05zM454.4 428.55L465.65 435.05L465.65 448.05L454.4 454.55L443.14 448.05L443.14 435.05zM454.4 506.55L465.65 513.05L465.65 526.05L454.4 532.55L443.14 526.05L443.14 513.05zM465.65 526.05L476.91 532.55L476.91 545.55L465.65 552.05L454.4 545.55L454.4 532.55zM454.4 545.55L465.65 552.05L465.65 565.05L454.4 571.55L443.14 565.05L443.14 552.05zM465.65 565.05L476.91 571.55L476.91 584.55L465.65 591.05L454.4 584.55L454.4 571.55zM454.4 584.55L465.65 591.05L465.65 604.05L454.4 610.55L443.14 604.05L443.14 591.05zM465.65 604.05L476.91 610.55L476.91 623.55L465.65 630.05L454.4 623.55L454.4 610.55zM454.4 662.55L465.65 669.05L465.65 682.05L454.4 688.55L443.14 682.05L443.14 669.05zM465.65 721.05L476.91 727.55L476.91 740.55L465.65 747.05L454.4 740.55L454.4 727.55zM454.4 779.55L465.65 786.05L465.65 799.05L454.4 805.55L443.14 799.05L443.14 786.05zM488.17 19.05L499.43 25.55L499.43 38.55L488.17 45.05L476.91 38.55L476.91 25.55zM476.91 116.55L488.17 123.05L488.17 136.05L476.91 142.55L465.65 136.05L465.65 123.05zM476.91 194.55L488.17 201.05L488.17 214.05L476.91 220.55L465.65 214.05L465.65 201.05zM488.17 214.05L499.43 220.55L499.43 233.55L488.17 240.05L476.91 233.55L476.91 220.55zM488.17 253.05L499.43 259.55L499.43 272.55L488.17 279.05L476.91 272.55L476.91 259.55zM476.91 272.55L488.17 279.05L488.17 292.05L476.91 298.55L465.65 292.05L465.65 279.05zM488.17 331.05L499.43 337.55L499.43 350.55L488.17 357.05L476.91 350.55L476.91 337.55zM488.17 370.05L499.43 376.55L499.43 389.55L488.17 396.05L476.91 389.55L476.91 376.55zM476.91 389.55L488.17 396.05L488.17 409.05L476.91 415.55L465.65 409.05L465.65 396.05zM488.17 409.05L499.43 415.55L499.43 428.55L488.17 435.05L476.91 428.55L476.91 415.55zM476.91 467.55L488.17 474.05L488.17 487.05L476.91 493.55L465.65 487.05L465.65 474.05zM488.17 526.05L499.43 532.55L499.43 545.55L488.17 552.05L476.91 545.55L476.91 532.55zM488.17 643.05L499.43 649.55L499.43 662.55L488.17 669.05L476.91 662.55L476.91 649.55zM476.91 662.55L488.17 669.05L488.17 682.05L476.91 688.55L465.65 682.05L465.65 669.05zM488.17 682.05L499.43 688.55L499.43 701.55L488.17 708.05L476.91 701.55L476.91 688.55zM476.91 701.55L488.17 708.05L488.17 721.05L476.91 727.55L465.65 721.05L465.65 708.05zM488.17 721.05L499.43 727.55L499.43 740.55L488.17 747.05L476.91 740.55L476.91 727.55zM499.43 77.55L510.69 84.05L510.69 97.05L499.43 103.55L488.17 97.05L488.17 84.05zM510.69 97.05L521.95 103.55L521.95 116.55L510.69 123.05L499.43 116.55L499.43 103.55zM499.43 116.55L510.69 123.05L510.69 136.05L499.43 142.55L488.17 136.05L488.17 123.05zM499.43 194.55L510.69 201.05L510.69 214.05L499.43 220.55L488.17 214.05L488.17 201.05zM499.43 272.55L510.69 279.05L510.69 292.05L499.43 298.55L488.17 292.05L488.17 279.05zM499.43 350.55L510.69 357.05L510.69 370.05L499.43 376.55L488.17 370.05L488.17 357.05zM499.43 389.55L510.69 396.05L510.69 409.05L499.43 415.55L488.17 409.05L488.17 396.05zM510.69 448.05L521.95 454.55L521.95 467.55L510.69 474.05L499.43 467.55L499.43 454.55zM510.69 487.05L521.95 493.55L521.95 506.55L510.69 513.05L499.43 506.55L499.43 493.55zM499.43 506.55L510.69 513.05L510.69 526.05L499.43 532.55L488.17 526.05L488.17 513.05zM510.69 604.05L521.95 610.55L521.95 623.55L510.69 630.05L499.43 623.55L499.43 610.55zM499.43 623.55L510.69 630.05L510.69 643.05L499.43 649.55L488.17 643.05L488.17 630.05zM510.69 643.05L521.95 649.55L521.95 662.55L510.69 669.05L499.43 662.55L499.43 649.55zM510.69 682.05L521.95 688.55L521.95 701.55L510.69 708.05L499.43 701.55L499.43 688.55zM499.43 701.55L510.69 708.05L510.69 721.05L499.43 727.55L488.17 721.05L488.17 708.05zM521.95 38.55L533.21 45.05L533.21 58.05L521.95 64.55L510.69 58.05L510.69 45.05zM533.21 97.05L544.47 103.55L544.47 116.55L533.21 123.05L521.95 116.55L521.95 103.55zM533.21 175.05L544.47 181.55L544.47 194.55L533.21 201.05L521.95 194.55L521.95 181.55zM521.95 272.55L533.21 279.05L533.21 292.05L521.95 298.55L510.69 292.05L510.69 279.05zM521.95 350.55L533.21 357.05L533.21 370.05L521.95 376.55L510.69 370.05L510.69 357.05zM521.95 389.55L533.21 396.05L533.21 409.05L521.95 415.55L510.69 409.05L510.69 396.05zM521.95 428.55L533.21 435.05L533.21 448.05L521.95 454.55L510.69 448.05L510.69 435.05zM521.95 467.55L533.21 474.05L533.21 487.05L521.95 493.55L510.69 487.05L510.69 474.05zM521.95 506.55L533.21 513.05L533.21 526.05L521.95 532.55L510.69 526.05L510.69 513.05zM533.21 526.05L544.47 532.55L544.47 545.55L533.21 552.05L521.95 545.55L521.95 532.55zM533.21 604.05L544.47 610.55L544.47 623.55L533.21 630.05L521.95 623.55L521.95 610.55zM521.95 662.55L533.21 669.05L533.21 682.05L521.95 688.55L510.69 682.05L510.69 669.05zM533.21 682.05L544.47 688.55L544.47 701.55L533.21 708.05L521.95 701.55L521.95 688.55zM521.95 740.55L533.21 747.05L533.21 760.05L521.95 766.55L510.69 760.05L510.69 747.05zM533.21 799.05L544.47 805.55L544.47 818.55L533.21 825.05L521.95 818.55L521.95 805.55zM555.72 19.05L566.98 25.55L566.98 38.55L555.72 45.05L544.47 38.55L544.47 25.55zM544.47 38.55L555.72 45.05L555.72 58.05L544.47 64.55L533.21 58.05L533.21 45.05zM555.72 58.05L566.98 64.55L566.98 77.55L555.72 84.05L544.47 77.55L544.47 64.55zM544.47 116.55L555.72 123.05L555.72 136.05L544.47 142.55L533.21 136.05L533.21 123.05zM555.72 175.05L566.98 181.55L566.98 194.55L555.72 201.05L544.47 194.55L544.47 181.55zM555.72 214.05L566.98 220.55L566.98 233.55L555.72 240.05L544.47 233.55L544.47 220.55zM544.47 350.55L555.72 357.05L555.72 370.05L544.47 376.55L533.21 370.05L533.21 357.05zM555.72 370.05L566.98 376.55L566.98 389.55L555.72 396.05L544.47 389.55L544.47 376.55zM544.47 389.55L555.72 396.05L555.72 409.05L544.47 415.55L533.21 409.05L533.21 396.05zM555.72 409.05L566.98 415.55L566.98 428.55L555.72 435.05L544.47 428.55L544.47 415.55zM544.47 467.55L555.72 474.05L555.72 487.05L544.47 493.55L533.21 487.05L533.21 474.05zM555.72 487.05L566.98 493.55L566.98 506.55L555.72 513.05L544.47 506.55L544.47 493.55zM544.47 506.55L555.72 513.05L555.72 526.05L544.47 532.55L533.21 526.05L533.21 513.05zM544.47 545.55L555.72 552.05L555.72 565.05L544.47 571.55L533.21 565.05L533.21 552.05zM544.47 623.55L555.72 630.05L555.72 643.05L544.47 649.55L533.21 643.05L533.21 630.05zM544.47 662.55L555.72 669.05L555.72 682.05L544.47 688.55L533.21 682.05L533.21 669.05zM555.72 682.05L566.98 688.55L566.98 701.55L555.72 708.05L544.47 701.55L544.47 688.55zM555.72 760.05L566.98 766.55L566.98 779.55L555.72 786.05L544.47 779.55L544.47 766.55zM578.24 19.05L589.5 25.55L589.5 38.55L578.24 45.05L566.98 38.55L566.98 25.55zM566.98 38.55L578.24 45.05L578.24 58.05L566.98 64.55L555.72 58.05L555.72 45.05zM566.98 77.55L578.24 84.05L578.24 97.05L566.98 103.55L555.72 97.05L555.72 84.05zM566.98 194.55L578.24 201.05L578.24 214.05L566.98 220.55L555.72 214.05L555.72 201.05zM566.98 311.55L578.24 318.05L578.24 331.05L566.98 337.55L555.72 331.05L555.72 318.05zM578.24 370.05L589.5 376.55L589.5 389.55L578.24 396.05L566.98 389.55L566.98 376.55zM566.98 467.55L578.24 474.05L578.24 487.05L566.98 493.55L555.72 487.05L555.72 474.05zM578.24 565.05L589.5 571.55L589.5 584.55L578.24 591.05L566.98 584.55L566.98 571.55zM578.24 643.05L589.5 649.55L589.5 662.55L578.24 669.05L566.98 662.55L566.98 649.55zM578.24 760.05L589.5 766.55L589.5 779.55L578.24 786.05L566.98 779.55L566.98 766.55zM566.98 818.55L578.24 825.05L578.24 838.05L566.98 844.55L555.72 838.05L555.72 825.05zM600.76 19.05L612.02 25.55L612.02 38.55L600.76 45.05L589.5 38.55L589.5 25.55zM589.5 38.55L600.76 45.05L600.76 58.05L589.5 64.55L578.24 58.05L578.24 45.05zM600.76 58.05L612.02 64.55L612.02 77.55L600.76 84.05L589.5 77.55L589.5 64.55zM589.5 194.55L600.76 201.05L600.76 214.05L589.5 220.55L578.24 214.05L578.24 201.05zM589.5 272.55L600.76 279.05L600.76 292.05L589.5 298.55L578.24 292.05L578.24 279.05zM589.5 311.55L600.76 318.05L600.76 331.05L589.5 337.55L578.24 331.05L578.24 318.05zM600.76 370.05L612.02 376.55L612.02 389.55L600.76 396.05L589.5 389.55L589.5 376.55zM589.5 389.55L600.76 396.05L600.76 409.05L589.5 415.55L578.24 409.05L578.24 396.05zM589.5 467.55L600.76 474.05L600.76 487.05L589.5 493.55L578.24 487.05L578.24 474.05zM589.5 584.55L600.76 591.05L600.76 604.05L589.5 610.55L578.24 604.05L578.24 591.05zM600.76 604.05L612.02 610.55L612.02 623.55L600.76 630.05L589.5 623.55L589.5 610.55zM600.76 643.05L612.02 649.55L612.02 662.55L600.76 669.05L589.5 662.55L589.5 649.55zM589.5 662.55L600.76 669.05L600.76 682.05L589.5 688.55L578.24 682.05L578.24 669.05zM600.76 760.05L612.02 766.55L612.02 779.55L600.76 786.05L589.5 779.55L589.5 766.55zM589.5 857.55L600.76 864.05L600.76 877.05L589.5 883.55L578.24 877.05L578.24 864.05zM623.28 19.05L634.53 25.55L634.53 38.55L623.28 45.05L612.02 38.55L612.02 25.55zM612.02 38.55L623.28 45.05L623.28 58.05L612.02 64.55L600.76 58.05L600.76 45.05zM623.28 58.05L634.53 64.55L634.53 77.55L623.28 84.05L612.02 77.55L612.02 64.55zM623.28 214.05L634.53 220.55L634.53 233.55L623.28 240.05L612.02 233.55L612.02 220.55zM612.02 233.55L623.28 240.05L623.28 253.05L612.02 259.55L600.76 253.05L600.76 240.05zM623.28 253.05L634.53 259.55L634.53 272.55L623.28 279.05L612.02 272.55L612.02 259.55zM623.28 331.05L634.53 337.55L634.53 350.55L623.28 357.05L612.02 350.55L612.02 337.55zM612.02 350.55L623.28 357.05L623.28 370.05L612.02 376.55L600.76 370.05L600.76 357.05zM612.02 428.55L623.28 435.05L623.28 448.05L612.02 454.55L600.76 448.05L600.76 435.05zM612.02 467.55L623.28 474.05L623.28 487.05L612.02 493.55L600.76 487.05L600.76 474.05zM623.28 487.05L634.53 493.55L634.53 506.55L623.28 513.05L612.02 506.55L612.02 493.55zM623.28 565.05L634.53 571.55L634.53 584.55L623.28 591.05L612.02 584.55L612.02 571.55zM623.28 643.05L634.53 649.55L634.53 662.55L623.28 669.05L612.02 662.55L612.02 649.55zM612.02 662.55L623.28 669.05L623.28 682.05L612.02 688.55L600.76 682.05L600.76 669.05zM612.02 740.55L623.28 747.05L623.28 760.05L612.02 766.55L600.76 760.05L600.76 747.05zM623.28 760.05L634.53 766.55L634.53 779.55L623.28 786.05L612.02 779.55L612.02 766.55zM612.02 779.55L623.28 786.05L623.28 799.05L612.02 805.55L600.76 799.05L600.76 786.05zM623.28 799.05L634.53 805.55L634.53 818.55L623.28 825.05L612.02 818.55L612.02 805.55zM612.02 818.55L623.28 825.05L623.28 838.05L612.02 844.55L600.76 838.05L600.76 825.05zM623.28 838.05L634.53 844.55L634.53 857.55L623.28 864.05L612.02 857.55L612.02 844.55zM634.53 -0.45L645.79 6.05L645.79 19.05L634.53 25.55L623.28 19.05L623.28 6.05zM645.79 19.05L657.05 25.55L657.05 38.55L645.79 45.05L634.53 38.55L634.53 25.55zM634.53 77.55L645.79 84.05L645.79 97.05L634.53 103.55L623.28 97.05L623.28 84.05zM645.79 97.05L657.05 103.55L657.05 116.55L645.79 123.05L634.53 116.55L634.53 103.55zM634.53 116.55L645.79 123.05L645.79 136.05L634.53 142.55L623.28 136.05L623.28 123.05zM645.79 175.05L657.05 181.55L657.05 194.55L645.79 201.05L634.53 194.55L634.53 181.55zM634.53 194.55L645.79 201.05L645.79 214.05L634.53 220.55L623.28 214.05L623.28 201.05zM634.53 272.55L645.79 279.05L645.79 292.05L634.53 298.55L623.28 292.05L623.28 279.05zM645.79 292.05L657.05 298.55L657.05 311.55L645.79 318.05L634.53 311.55L634.53 298.55zM645.79 331.05L657.05 337.55L657.05 350.55L645.79 357.05L634.53 350.55L634.53 337.55zM645.79 370.05L657.05 376.55L657.05 389.55L645.79 396.05L634.53 389.55L634.53 376.55zM645.79 409.05L657.05 415.55L657.05 428.55L645.79 435.05L634.53 428.55L634.53 415.55zM634.53 506.55L645.79 513.05L645.79 526.05L634.53 532.55L623.28 526.05L623.28 513.05zM634.53 584.55L645.79 591.05L645.79 604.05L634.53 610.55L623.28 604.05L623.28 591.05zM645.79 604.05L657.05 610.55L657.05 623.55L645.79 630.05L634.53 623.55L634.53 610.55zM645.79 643.05L657.05 649.55L657.05 662.55L645.79 669.05L634.53 662.55L634.53 649.55zM645.79 682.05L657.05 688.55L657.05 701.55L645.79 708.05L634.53 701.55L634.53 688.55zM645.79 721.05L657.05 727.55L657.05 740.55L645.79 747.05L634.53 740.55L634.53 727.55zM645.79 760.05L657.05 766.55L657.05 779.55L645.79 786.05L634.53 779.55L634.53 766.55zM634.53 779.55L645.79 786.05L645.79 799.05L634.53 805.55L623.28 799.05L623.28 786.05zM645.79 838.05L657.05 844.55L657.05 857.55L645.79 864.05L634.53 857.55L634.53 844.55zM634.53 857.55L645.79 864.05L645.79 877.05L634.53 883.55L623.28 877.05L623.28 864.05zM668.31 97.05L679.57 103.55L679.57 116.55L668.31 123.05L657.05 116.55L657.05 103.55zM657.05 116.55L668.31 123.05L668.31 136.05L657.05 142.55L645.79 136.05L645.79 123.05zM668.31 136.05L679.57 142.55L679.57 155.55L668.31 162.05L657.05 155.55L657.05 142.55zM657.05 155.55L668.31 162.05L668.31 175.05L657.05 181.55L645.79 175.05L645.79 162.05zM668.31 214.05L679.57 220.55L679.57 233.55L668.31 240.05L657.05 233.55L657.05 220.55zM668.31 253.05L679.57 259.55L679.57 272.55L668.31 279.05L657.05 272.55L657.05 259.55zM668.31 292.05L679.57 298.55L679.57 311.55L668.31 318.05L657.05 311.55L657.05 298.55zM657.05 311.55L668.31 318.05L668.31 331.05L657.05 337.55L645.79 331.05L645.79 318.05zM668.31 331.05L679.57 337.55L679.57 350.55L668.31 357.05L657.05 350.55L657.05 337.55zM657.05 389.55L668.31 396.05L668.31 409.05L657.05 415.55L645.79 409.05L645.79 396.05zM657.05 467.55L668.31 474.05L668.31 487.05L657.05 493.55L645.79 487.05L645.79 474.05zM668.31 487.05L679.57 493.55L679.57 506.55L668.31 513.05L657.05 506.55L657.05 493.55zM668.31 526.05L679.57 532.55L679.57 545.55L668.31 552.05L657.05 545.55L657.05 532.55zM668.31 565.05L679.57 571.55L679.57 584.55L668.31 591.05L657.05 584.55L657.05 571.55zM657.05 584.55L668.31 591.05L668.31 604.05L657.05 610.55L645.79 604.05L645.79 591.05zM668.31 682.05L679.57 688.55L679.57 701.55L668.31 708.05L657.05 701.55L657.05 688.55zM668.31 721.05L679.57 727.55L679.57 740.55L668.31 747.05L657.05 740.55L657.05 727.55zM657.05 818.55L668.31 825.05L668.31 838.05L657.05 844.55L645.79 838.05L645.79 825.05zM679.57 -0.45L690.83 6.05L690.83 19.05L679.57 25.55L668.31 19.05L668.31 6.05zM679.57 77.55L690.83 84.05L690.83 97.05L679.57 103.55L668.31 97.05L668.31 84.05zM690.83 97.05L702.09 103.55L702.09 116.55L690.83 123.05L679.57 116.55L679.57 103.55zM679.57 116.55L690.83 123.05L690.83 136.05L679.57 142.55L668.31 136.05L668.31 123.05zM690.83 136.05L702.09 142.55L702.09 155.55L690.83 162.05L679.57 155.55L679.57 142.55zM690.83 214.05L702.09 220.55L702.09 233.55L690.83 240.05L679.57 233.55L679.57 220.55zM690.83 331.05L702.09 337.55L702.09 350.55L690.83 357.05L679.57 350.55L679.57 337.55zM679.57 428.55L690.83 435.05L690.83 448.05L679.57 454.55L668.31 448.05L668.31 435.05zM690.83 604.05L702.09 610.55L702.09 623.55L690.83 630.05L679.57 623.55L679.57 610.55zM679.57 623.55L690.83 630.05L690.83 643.05L679.57 649.55L668.31 643.05L668.31 630.05zM690.83 643.05L702.09 649.55L702.09 662.55L690.83 669.05L679.57 662.55L679.57 649.55zM690.83 682.05L702.09 688.55L702.09 701.55L690.83 708.05L679.57 701.55L679.57 688.55zM690.83 721.05L702.09 727.55L702.09 740.55L690.83 747.05L679.57 740.55L679.57 727.55zM679.57 779.55L690.83 786.05L690.83 799.05L679.57 805.55L668.31 799.05L668.31 786.05zM690.83 799.05L702.09 805.55L702.09 818.55L690.83 825.05L679.57 818.55L679.57 805.55zM679.57 818.55L690.83 825.05L690.83 838.05L679.57 844.55L668.31 838.05L668.31 825.05zM690.83 838.05L702.09 844.55L702.09 857.55L690.83 864.05L679.57 857.55L679.57 844.55zM713.34 58.05L724.6 64.55L724.6 77.55L713.34 84.05L702.09 77.55L702.09 64.55zM713.34 97.05L724.6 103.55L724.6 116.55L713.34 123.05L702.09 116.55L702.09 103.55zM713.34 175.05L724.6 181.55L724.6 194.55L713.34 201.05L702.09 194.55L702.09 181.55zM713.34 214.05L724.6 220.55L724.6 233.55L713.34 240.05L702.09 233.55L702.09 220.55zM713.34 253.05L724.6 259.55L724.6 272.55L713.34 279.05L702.09 272.55L702.09 259.55zM702.09 272.55L713.34 279.05L713.34 292.05L702.09 298.55L690.83 292.05L690.83 279.05zM702.09 311.55L713.34 318.05L713.34 331.05L702.09 337.55L690.83 331.05L690.83 318.05zM713.34 370.05L724.6 376.55L724.6 389.55L713.34 396.05L702.09 389.55L702.09 376.55zM702.09 389.55L713.34 396.05L713.34 409.05L702.09 415.55L690.83 409.05L690.83 396.05zM713.34 448.05L724.6 454.55L724.6 467.55L713.34 474.05L702.09 467.55L702.09 454.55zM702.09 506.55L713.34 513.05L713.34 526.05L702.09 532.55L690.83 526.05L690.83 513.05zM702.09 545.55L713.34 552.05L713.34 565.05L702.09 571.55L690.83 565.05L690.83 552.05zM713.34 565.05L724.6 571.55L724.6 584.55L713.34 591.05L702.09 584.55L702.09 571.55zM713.34 604.05L724.6 610.55L724.6 623.55L713.34 630.05L702.09 623.55L702.09 610.55zM702.09 662.55L713.34 669.05L713.34 682.05L702.09 688.55L690.83 682.05L690.83 669.05zM713.34 682.05L724.6 688.55L724.6 701.55L713.34 708.05L702.09 701.55L702.09 688.55zM713.34 838.05L724.6 844.55L724.6 857.55L713.34 864.05L702.09 857.55L702.09 844.55zM735.86 58.05L747.12 64.55L747.12 77.55L735.86 84.05L724.6 77.55L724.6 64.55zM724.6 77.55L735.86 84.05L735.86 97.05L724.6 103.55L713.34 97.05L713.34 84.05zM735.86 97.05L747.12 103.55L747.12 116.55L735.86 123.05L724.6 116.55L724.6 103.55zM735.86 136.05L747.12 142.55L747.12 155.55L735.86 162.05L724.6 155.55L724.6 142.55zM724.6 155.55L735.86 162.05L735.86 175.05L724.6 181.55L713.34 175.05L713.34 162.05zM724.6 233.55L735.86 240.05L735.86 253.05L724.6 259.55L713.34 253.05L713.34 240.05zM724.6 272.55L735.86 279.05L735.86 292.05L724.6 298.55L713.34 292.05L713.34 279.05zM735.86 292.05L747.12 298.55L747.12 311.55L735.86 318.05L724.6 311.55L724.6 298.55zM735.86 487.05L747.12 493.55L747.12 506.55L735.86 513.05L724.6 506.55L724.6 493.55zM724.6 506.55L735.86 513.05L735.86 526.05L724.6 532.55L713.34 526.05L713.34 513.05zM735.86 526.05L747.12 532.55L747.12 545.55L735.86 552.05L724.6 545.55L724.6 532.55zM724.6 545.55L735.86 552.05L735.86 565.05L724.6 571.55L713.34 565.05L713.34 552.05zM735.86 604.05L747.12 610.55L747.12 623.55L735.86 630.05L724.6 623.55L724.6 610.55zM735.86 682.05L747.12 688.55L747.12 701.55L735.86 708.05L724.6 701.55L724.6 688.55zM735.86 760.05L747.12 766.55L747.12 779.55L735.86 786.05L724.6 779.55L724.6 766.55zM724.6 779.55L735.86 786.05L735.86 799.05L724.6 805.55L713.34 799.05L713.34 786.05zM735.86 799.05L747.12 805.55L747.12 818.55L735.86 825.05L724.6 818.55L724.6 805.55zM735.86 838.05L747.12 844.55L747.12 857.55L735.86 864.05L724.6 857.55L724.6 844.55zM724.6 857.55L735.86 864.05L735.86 877.05L724.6 883.55L713.34 877.05L713.34 864.05zM747.12 -0.45L758.38 6.05L758.38 19.05L747.12 25.55L735.86 19.05L735.86 6.05zM747.12 116.55L758.38 123.05L758.38 136.05L747.12 142.55L735.86 136.05L735.86 123.05zM758.38 292.05L769.64 298.55L769.64 311.55L758.38 318.05L747.12 311.55L747.12 298.55zM747.12 311.55L758.38 318.05L758.38 331.05L747.12 337.55L735.86 331.05L735.86 318.05zM747.12 584.55L758.38 591.05L758.38 604.05L747.12 610.55L735.86 604.05L735.86 591.05zM747.12 701.55L758.38 708.05L758.38 721.05L747.12 727.55L735.86 721.05L735.86 708.05zM747.12 740.55L758.38 747.05L758.38 760.05L747.12 766.55L735.86 760.05L735.86 747.05zM758.38 838.05L769.64 844.55L769.64 857.55L758.38 864.05L747.12 857.55L747.12 844.55zM769.64 77.55L780.9 84.05L780.9 97.05L769.64 103.55L758.38 97.05L758.38 84.05zM769.64 116.55L780.9 123.05L780.9 136.05L769.64 142.55L758.38 136.05L758.38 123.05zM769.64 155.55L780.9 162.05L780.9 175.05L769.64 181.55L758.38 175.05L758.38 162.05zM780.9 175.05L792.16 181.55L792.16 194.55L780.9 201.05L769.64 194.55L769.64 181.55zM769.64 233.55L780.9 240.05L780.9 253.05L769.64 259.55L758.38 253.05L758.38 240.05zM780.9 253.05L792.16 259.55L792.16 272.55L780.9 279.05L769.64 272.55L769.64 259.55zM769.64 311.55L780.9 318.05L780.9 331.05L769.64 337.55L758.38 331.05L758.38 318.05zM780.9 331.05L792.16 337.55L792.16 350.55L780.9 357.05L769.64 350.55L769.64 337.55zM780.9 370.05L792.16 376.55L792.16 389.55L780.9 396.05L769.64 389.55L769.64 376.55zM769.64 428.55L780.9 435.05L780.9 448.05L769.64 454.55L758.38 448.05L758.38 435.05zM780.9 487.05L792.16 493.55L792.16 506.55L780.9 513.05L769.64 506.55L769.64 493.55zM769.64 506.55L780.9 513.05L780.9 526.05L769.64 532.55L758.38 526.05L758.38 513.05zM780.9 526.05L792.16 532.55L792.16 545.55L780.9 552.05L769.64 545.55L769.64 532.55zM769.64 584.55L780.9 591.05L780.9 604.05L769.64 610.55L758.38 604.05L758.38 591.05zM769.64 662.55L780.9 669.05L780.9 682.05L769.64 688.55L758.38 682.05L758.38 669.05zM769.64 701.55L780.9 708.05L780.9 721.05L769.64 727.55L758.38 721.05L758.38 708.05zM780.9 721.05L792.16 727.55L792.16 740.55L780.9 747.05L769.64 740.55L769.64 727.55zM769.64 740.55L780.9 747.05L780.9 760.05L769.64 766.55L758.38 760.05L758.38 747.05zM780.9 838.05L792.16 844.55L792.16 857.55L780.9 864.05L769.64 857.55L769.64 844.55zM792.16 -0.45L803.41 6.05L803.41 19.05L792.16 25.55L780.9 19.05L780.9 6.05zM803.41 19.05L814.67 25.55L814.67 38.55L803.41 45.05L792.16 38.55L792.16 25.55zM803.41 97.05L814.67 103.55L814.67 116.55L803.41 123.05L792.16 116.55L792.16 103.55zM803.41 175.05L814.67 181.55L814.67 194.55L803.41 201.05L792.16 194.55L792.16 181.55zM803.41 214.05L814.67 220.55L814.67 233.55L803.41 240.05L792.16 233.55L792.16 220.55zM792.16 272.55L803.41 279.05L803.41 292.05L792.16 298.55L780.9 292.05L780.9 279.05zM792.16 311.55L803.41 318.05L803.41 331.05L792.16 337.55L780.9 331.05L780.9 318.05zM803.41 370.05L814.67 376.55L814.67 389.55L803.41 396.05L792.16 389.55L792.16 376.55zM792.16 584.55L803.41 591.05L803.41 604.05L792.16 610.55L780.9 604.05L780.9 591.05zM792.16 740.55L803.41 747.05L803.41 760.05L792.16 766.55L780.9 760.05L780.9 747.05zM803.41 760.05L814.67 766.55L814.67 779.55L803.41 786.05L792.16 779.55L792.16 766.55zM803.41 799.05L814.67 805.55L814.67 818.55L803.41 825.05L792.16 818.55L792.16 805.55zM803.41 838.05L814.67 844.55L814.67 857.55L803.41 864.05L792.16 857.55L792.16 844.55zM792.16 857.55L803.41 864.05L803.41 877.05L792.16 883.55L780.9 877.05L780.9 864.05zM825.93 19.05L837.19 25.55L837.19 38.55L825.93 45.05L814.67 38.55L814.67 25.55zM814.67 38.55L825.93 45.05L825.93 58.05L814.67 64.55L803.41 58.05L803.41 45.05zM825.93 58.05L837.19 64.55L837.19 77.55L825.93 84.05L814.67 77.55L814.67 64.55zM814.67 155.55L825.93 162.05L825.93 175.05L814.67 181.55L803.41 175.05L803.41 162.05zM825.93 175.05L837.19 181.55L837.19 194.55L825.93 201.05L814.67 194.55L814.67 181.55zM825.93 214.05L837.19 220.55L837.19 233.55L825.93 240.05L814.67 233.55L814.67 220.55zM814.67 350.55L825.93 357.05L825.93 370.05L814.67 376.55L803.41 370.05L803.41 357.05zM825.93 409.05L837.19 415.55L837.19 428.55L825.93 435.05L814.67 428.55L814.67 415.55zM825.93 448.05L837.19 454.55L837.19 467.55L825.93 474.05L814.67 467.55L814.67 454.55zM814.67 584.55L825.93 591.05L825.93 604.05L814.67 610.55L803.41 604.05L803.41 591.05zM814.67 740.55L825.93 747.05L825.93 760.05L814.67 766.55L803.41 760.05L803.41 747.05zM814.67 818.55L825.93 825.05L825.93 838.05L814.67 844.55L803.41 838.05L803.41 825.05zM825.93 838.05L837.19 844.55L837.19 857.55L825.93 864.05L814.67 857.55L814.67 844.55zM837.19 -0.45L848.45 6.05L848.45 19.05L837.19 25.55L825.93 19.05L825.93 6.05zM837.19 77.55L848.45 84.05L848.45 97.05L837.19 103.55L825.93 97.05L825.93 84.05zM837.19 116.55L848.45 123.05L848.45 136.05L837.19 142.55L825.93 136.05L825.93 123.05zM837.19 194.55L848.45 201.05L848.45 214.05L837.19 220.55L825.93 214.05L825.93 201.05zM848.45 253.05L859.71 259.55L859.71 272.55L848.45 279.05L837.19 272.55L837.19 259.55zM848.45 292.05L859.71 298.55L859.71 311.55L848.45 318.05L837.19 311.55L837.19 298.55zM837.19 350.55L848.45 357.05L848.45 370.05L837.19 376.55L825.93 370.05L825.93 357.05zM848.45 409.05L859.71 415.55L859.71 428.55L848.45 435.05L837.19 428.55L837.19 415.55zM837.19 623.55L848.45 630.05L848.45 643.05L837.19 649.55L825.93 643.05L825.93 630.05zM837.19 701.55L848.45 708.05L848.45 721.05L837.19 727.55L825.93 721.05L825.93 708.05zM837.19 740.55L848.45 747.05L848.45 760.05L837.19 766.55L825.93 760.05L825.93 747.05zM848.45 838.05L859.71 844.55L859.71 857.55L848.45 864.05L837.19 857.55L837.19 844.55zM837.19 857.55L848.45 864.05L848.45 877.05L837.19 883.55L825.93 877.05L825.93 864.05zM870.97 19.05L882.22 25.55L882.22 38.55L870.97 45.05L859.71 38.55L859.71 25.55zM859.71 38.55L870.97 45.05L870.97 58.05L859.71 64.55L848.45 58.05L848.45 45.05zM859.71 77.55L870.97 84.05L870.97 97.05L859.71 103.55L848.45 97.05L848.45 84.05zM859.71 116.55L870.97 123.05L870.97 136.05L859.71 142.55L848.45 136.05L848.45 123.05zM859.71 233.55L870.97 240.05L870.97 253.05L859.71 259.55L848.45 253.05L848.45 240.05zM870.97 292.05L882.22 298.55L882.22 311.55L870.97 318.05L859.71 311.55L859.71 298.55zM859.71 350.55L870.97 357.05L870.97 370.05L859.71 376.55L848.45 370.05L848.45 357.05zM859.71 389.55L870.97 396.05L870.97 409.05L859.71 415.55L848.45 409.05L848.45 396.05zM870.97 409.05L882.22 415.55L882.22 428.55L870.97 435.05L859.71 428.55L859.71 415.55zM859.71 428.55L870.97 435.05L870.97 448.05L859.71 454.55L848.45 448.05L848.45 435.05zM870.97 448.05L882.22 454.55L882.22 467.55L870.97 474.05L859.71 467.55L859.71 454.55zM859.71 467.55L870.97 474.05L870.97 487.05L859.71 493.55L848.45 487.05L848.45 474.05zM870.97 487.05L882.22 493.55L882.22 506.55L870.97 513.05L859.71 506.55L859.71 493.55zM870.97 565.05L882.22 571.55L882.22 584.55L870.97 591.05L859.71 584.55L859.71 571.55zM859.71 623.55L870.97 630.05L870.97 643.05L859.71 649.55L848.45 643.05L848.45 630.05zM870.97 682.05L882.22 688.55L882.22 701.55L870.97 708.05L859.71 701.55L859.71 688.55zM859.71 701.55L870.97 708.05L870.97 721.05L859.71 727.55L848.45 721.05L848.45 708.05zM870.97 760.05L882.22 766.55L882.22 779.55L870.97 786.05L859.71 779.55L859.71 766.55zM870.97 838.05L882.22 844.55L882.22 857.55L870.97 864.05L859.71 857.55L859.71 844.55zM882.22 -0.45L893.48 6.05L893.48 19.05L882.22 25.55L870.97 19.05L870.97 6.05zM893.48 19.05L904.74 25.55L904.74 38.55L893.48 45.05L882.22 38.55L882.22 25.55zM882.22 38.55L893.48 45.05L893.48 58.05L882.22 64.55L870.97 58.05L870.97 45.05zM893.48 97.05L904.74 103.55L904.74 116.55L893.48 123.05L882.22 116.55L882.22 103.55zM882.22 116.55L893.48 123.05L893.48 136.05L882.22 142.55L870.97 136.05L870.97 123.05zM893.48 292.05L904.74 298.55L904.74 311.55L893.48 318.05L882.22 311.55L882.22 298.55zM882.22 311.55L893.48 318.05L893.48 331.05L882.22 337.55L870.97 331.05L870.97 318.05zM882.22 350.55L893.48 357.05L893.48 370.05L882.22 376.55L870.97 370.05L870.97 357.05zM893.48 409.05L904.74 415.55L904.74 428.55L893.48 435.05L882.22 428.55L882.22 415.55zM882.22 428.55L893.48 435.05L893.48 448.05L882.22 454.55L870.97 448.05L870.97 435.05zM893.48 487.05L904.74 493.55L904.74 506.55L893.48 513.05L882.22 506.55L882.22 493.55zM882.22 506.55L893.48 513.05L893.48 526.05L882.22 532.55L870.97 526.05L870.97 513.05zM893.48 526.05L904.74 532.55L904.74 545.55L893.48 552.05L882.22 545.55L882.22 532.55zM893.48 565.05L904.74 571.55L904.74 584.55L893.48 591.05L882.22 584.55L882.22 571.55zM893.48 721.05L904.74 727.55L904.74 740.55L893.48 747.05L882.22 740.55L882.22 727.55zM893.48 838.05L904.74 844.55L904.74 857.55L893.48 864.05L882.22 857.55L882.22 844.55zM904.74 -0.45L916 6.05L916 19.05L904.74 25.55L893.48 19.05L893.48 6.05zM904.74 116.55L916 123.05L916 136.05L904.74 142.55L893.48 136.05L893.48 123.05zM916 175.05L927.26 181.55L927.26 194.55L916 201.05L904.74 194.55L904.74 181.55zM904.74 194.55L916 201.05L916 214.05L904.74 220.55L893.48 214.05L893.48 201.05zM904.74 233.55L916 240.05L916 253.05L904.74 259.55L893.48 253.05L893.48 240.05zM916 253.05L927.26 259.55L927.26 272.55L916 279.05L904.74 272.55L904.74 259.55zM904.74 311.55L916 318.05L916 331.05L904.74 337.55L893.48 331.05L893.48 318.05zM904.74 350.55L916 357.05L916 370.05L904.74 376.55L893.48 370.05L893.48 357.05zM904.74 428.55L916 435.05L916 448.05L904.74 454.55L893.48 448.05L893.48 435.05zM916 526.05L927.26 532.55L927.26 545.55L916 552.05L904.74 545.55L904.74 532.55zM904.74 623.55L916 630.05L916 643.05L904.74 649.55L893.48 643.05L893.48 630.05zM916 643.05L927.26 649.55L927.26 662.55L916 669.05L904.74 662.55L904.74 649.55zM916 760.05L927.26 766.55L927.26 779.55L916 786.05L904.74 779.55L904.74 766.55zM904.74 779.55L916 786.05L916 799.05L904.74 805.55L893.48 799.05L893.48 786.05zM927.26 -0.45L938.52 6.05L938.52 19.05L927.26 25.55L916 19.05L916 6.05zM938.52 19.05L949.78 25.55L949.78 38.55L938.52 45.05L927.26 38.55L927.26 25.55zM927.26 38.55L938.52 45.05L938.52 58.05L927.26 64.55L916 58.05L916 45.05zM938.52 97.05L949.78 103.55L949.78 116.55L938.52 123.05L927.26 116.55L927.26 103.55zM927.26 116.55L938.52 123.05L938.52 136.05L927.26 142.55L916 136.05L916 123.05zM927.26 155.55L938.52 162.05L938.52 175.05L927.26 181.55L916 175.05L916 162.05zM938.52 253.05L949.78 259.55L949.78 272.55L938.52 279.05L927.26 272.55L927.26 259.55zM927.26 311.55L938.52 318.05L938.52 331.05L927.26 337.55L916 331.05L916 318.05zM938.52 331.05L949.78 337.55L949.78 350.55L938.52 357.05L927.26 350.55L927.26 337.55zM927.26 428.55L938.52 435.05L938.52 448.05L927.26 454.55L916 448.05L916 435.05zM927.26 506.55L938.52 513.05L938.52 526.05L927.26 532.55L916 526.05L916 513.05zM938.52 604.05L949.78 610.55L949.78 623.55L938.52 630.05L927.26 623.55L927.26 610.55zM927.26 662.55L938.52 669.05L938.52 682.05L927.26 688.55L916 682.05L916 669.05zM927.26 701.55L938.52 708.05L938.52 721.05L927.26 727.55L916 721.05L916 708.05zM949.78 -0.45L961.04 6.05L961.04 19.05L949.78 25.55L938.52 19.05L938.52 6.05zM961.04 97.05L972.29 103.55L972.29 116.55L961.04 123.05L949.78 116.55L949.78 103.55zM949.78 194.55L961.04 201.05L961.04 214.05L949.78 220.55L938.52 214.05L938.52 201.05zM961.04 214.05L972.29 220.55L972.29 233.55L961.04 240.05L949.78 233.55L949.78 220.55zM949.78 272.55L961.04 279.05L961.04 292.05L949.78 298.55L938.52 292.05L938.52 279.05zM961.04 292.05L972.29 298.55L972.29 311.55L961.04 318.05L949.78 311.55L949.78 298.55zM949.78 311.55L961.04 318.05L961.04 331.05L949.78 337.55L938.52 331.05L938.52 318.05zM961.04 370.05L972.29 376.55L972.29 389.55L961.04 396.05L949.78 389.55L949.78 376.55zM949.78 428.55L961.04 435.05L961.04 448.05L949.78 454.55L938.52 448.05L938.52 435.05zM961.04 448.05L972.29 454.55L972.29 467.55L961.04 474.05L949.78 467.55L949.78 454.55zM961.04 487.05L972.29 493.55L972.29 506.55L961.04 513.05L949.78 506.55L949.78 493.55zM949.78 545.55L961.04 552.05L961.04 565.05L949.78 571.55L938.52 565.05L938.52 552.05zM961.04 604.05L972.29 610.55L972.29 623.55L961.04 630.05L949.78 623.55L949.78 610.55zM961.04 721.05L972.29 727.55L972.29 740.55L961.04 747.05L949.78 740.55L949.78 727.55zM961.04 760.05L972.29 766.55L972.29 779.55L961.04 786.05L949.78 779.55L949.78 766.55zM949.78 779.55L961.04 786.05L961.04 799.05L949.78 805.55L938.52 799.05L938.52 786.05zM949.78 818.55L961.04 825.05L961.04 838.05L949.78 844.55L938.52 838.05L938.52 825.05zM972.29 -0.45L983.55 6.05L983.55 19.05L972.29 25.55L961.04 19.05L961.04 6.05zM972.29 38.55L983.55 45.05L983.55 58.05L972.29 64.55L961.04 58.05L961.04 45.05zM983.55 214.05L994.81 220.55L994.81 233.55L983.55 240.05L972.29 233.55L972.29 220.55zM972.29 623.55L983.55 630.05L983.55 643.05L972.29 649.55L961.04 643.05L961.04 630.05zM972.29 701.55L983.55 708.05L983.55 721.05L972.29 727.55L961.04 721.05L961.04 708.05zM972.29 779.55L983.55 786.05L983.55 799.05L972.29 805.55L961.04 799.05L961.04 786.05zM1006.07 58.05L1017.33 64.55L1017.33 77.55L1006.07 84.05L994.81 77.55L994.81 64.55zM994.81 77.55L1006.07 84.05L1006.07 97.05L994.81 103.55L983.55 97.05L983.55 84.05zM994.81 155.55L1006.07 162.05L1006.07 175.05L994.81 181.55L983.55 175.05L983.55 162.05zM1006.07 175.05L1017.33 181.55L1017.33 194.55L1006.07 201.05L994.81 194.55L994.81 181.55zM1006.07 253.05L1017.33 259.55L1017.33 272.55L1006.07 279.05L994.81 272.55L994.81 259.55zM994.81 272.55L1006.07 279.05L1006.07 292.05L994.81 298.55L983.55 292.05L983.55 279.05zM1006.07 292.05L1017.33 298.55L1017.33 311.55L1006.07 318.05L994.81 311.55L994.81 298.55zM994.81 311.55L1006.07 318.05L1006.07 331.05L994.81 337.55L983.55 331.05L983.55 318.05zM1006.07 370.05L1017.33 376.55L1017.33 389.55L1006.07 396.05L994.81 389.55L994.81 376.55zM1006.07 409.05L1017.33 415.55L1017.33 428.55L1006.07 435.05L994.81 428.55L994.81 415.55zM994.81 428.55L1006.07 435.05L1006.07 448.05L994.81 454.55L983.55 448.05L983.55 435.05zM994.81 506.55L1006.07 513.05L1006.07 526.05L994.81 532.55L983.55 526.05L983.55 513.05zM994.81 545.55L1006.07 552.05L1006.07 565.05L994.81 571.55L983.55 565.05L983.55 552.05zM1006.07 682.05L1017.33 688.55L1017.33 701.55L1006.07 708.05L994.81 701.55L994.81 688.55zM1006.07 721.05L1017.33 727.55L1017.33 740.55L1006.07 747.05L994.81 740.55L994.81 727.55zM994.81 740.55L1006.07 747.05L1006.07 760.05L994.81 766.55L983.55 760.05L983.55 747.05zM1006.07 838.05L1017.33 844.55L1017.33 857.55L1006.07 864.05L994.81 857.55L994.81 844.55zM1017.33 -0.45L1028.59 6.05L1028.59 19.05L1017.33 25.55L1006.07 19.05L1006.07 6.05zM1017.33 77.55L1028.59 84.05L1028.59 97.05L1017.33 103.55L1006.07 97.05L1006.07 84.05zM1028.59 175.05L1039.85 181.55L1039.85 194.55L1028.59 201.05L1017.33 194.55L1017.33 181.55zM1028.59 214.05L1039.85 220.55L1039.85 233.55L1028.59 240.05L1017.33 233.55L1017.33 220.55zM1028.59 253.05L1039.85 259.55L1039.85 272.55L1028.59 279.05L1017.33 272.55L1017.33 259.55zM1017.33 272.55L1028.59 279.05L1028.59 292.05L1017.33 298.55L1006.07 292.05L1006.07 279.05zM1028.59 292.05L1039.85 298.55L1039.85 311.55L1028.59 318.05L1017.33 311.55L1017.33 298.55zM1028.59 331.05L1039.85 337.55L1039.85 350.55L1028.59 357.05L1017.33 350.55L1017.33 337.55zM1017.33 350.55L1028.59 357.05L1028.59 370.05L1017.33 376.55L1006.07 370.05L1006.07 357.05zM1017.33 389.55L1028.59 396.05L1028.59 409.05L1017.33 415.55L1006.07 409.05L1006.07 396.05zM1028.59 409.05L1039.85 415.55L1039.85 428.55L1028.59 435.05L1017.33 428.55L1017.33 415.55zM1017.33 428.55L1028.59 435.05L1028.59 448.05L1017.33 454.55L1006.07 448.05L1006.07 435.05zM1017.33 467.55L1028.59 474.05L1028.59 487.05L1017.33 493.55L1006.07 487.05L1006.07 474.05zM1028.59 526.05L1039.85 532.55L1039.85 545.55L1028.59 552.05L1017.33 545.55L1017.33 532.55zM1017.33 545.55L1028.59 552.05L1028.59 565.05L1017.33 571.55L1006.07 565.05L1006.07 552.05zM1028.59 565.05L1039.85 571.55L1039.85 584.55L1028.59 591.05L1017.33 584.55L1017.33 571.55zM1017.33 623.55L1028.59 630.05L1028.59 643.05L1017.33 649.55L1006.07 643.05L1006.07 630.05zM1017.33 701.55L1028.59 708.05L1028.59 721.05L1017.33 727.55L1006.07 721.05L1006.07 708.05zM1028.59 721.05L1039.85 727.55L1039.85 740.55L1028.59 747.05L1017.33 740.55L1017.33 727.55zM1017.33 740.55L1028.59 747.05L1028.59 760.05L1017.33 766.55L1006.07 760.05L1006.07 747.05zM1028.59 799.05L1039.85 805.55L1039.85 818.55L1028.59 825.05L1017.33 818.55L1017.33 805.55zM1017.33 857.55L1028.59 864.05L1028.59 877.05L1017.33 883.55L1006.07 877.05L1006.07 864.05zM1039.85 -0.45L1051.1 6.05L1051.1 19.05L1039.85 25.55L1028.59 19.05L1028.59 6.05zM1051.1 19.05L1062.36 25.55L1062.36 38.55L1051.1 45.05L1039.85 38.55L1039.85 25.55zM1039.85 77.55L1051.1 84.05L1051.1 97.05L1039.85 103.55L1028.59 97.05L1028.59 84.05zM1051.1 97.05L1062.36 103.55L1062.36 116.55L1051.1 123.05L1039.85 116.55L1039.85 103.55zM1051.1 136.05L1062.36 142.55L1062.36 155.55L1051.1 162.05L1039.85 155.55L1039.85 142.55zM1051.1 253.05L1062.36 259.55L1062.36 272.55L1051.1 279.05L1039.85 272.55L1039.85 259.55zM1039.85 311.55L1051.1 318.05L1051.1 331.05L1039.85 337.55L1028.59 331.05L1028.59 318.05zM1039.85 350.55L1051.1 357.05L1051.1 370.05L1039.85 376.55L1028.59 370.05L1028.59 357.05zM1051.1 370.05L1062.36 376.55L1062.36 389.55L1051.1 396.05L1039.85 389.55L1039.85 376.55zM1051.1 448.05L1062.36 454.55L1062.36 467.55L1051.1 474.05L1039.85 467.55L1039.85 454.55zM1039.85 506.55L1051.1 513.05L1051.1 526.05L1039.85 532.55L1028.59 526.05L1028.59 513.05zM1051.1 526.05L1062.36 532.55L1062.36 545.55L1051.1 552.05L1039.85 545.55L1039.85 532.55zM1039.85 545.55L1051.1 552.05L1051.1 565.05L1039.85 571.55L1028.59 565.05L1028.59 552.05zM1039.85 701.55L1051.1 708.05L1051.1 721.05L1039.85 727.55L1028.59 721.05L1028.59 708.05zM1051.1 721.05L1062.36 727.55L1062.36 740.55L1051.1 747.05L1039.85 740.55L1039.85 727.55zM1039.85 779.55L1051.1 786.05L1051.1 799.05L1039.85 805.55L1028.59 799.05L1028.59 786.05zM1062.36 38.55L1073.62 45.05L1073.62 58.05L1062.36 64.55L1051.1 58.05L1051.1 45.05zM1062.36 77.55L1073.62 84.05L1073.62 97.05L1062.36 103.55L1051.1 97.05L1051.1 84.05zM1073.62 136.05L1084.88 142.55L1084.88 155.55L1073.62 162.05L1062.36 155.55L1062.36 142.55zM1073.62 175.05L1084.88 181.55L1084.88 194.55L1073.62 201.05L1062.36 194.55L1062.36 181.55zM1073.62 214.05L1084.88 220.55L1084.88 233.55L1073.62 240.05L1062.36 233.55L1062.36 220.55zM1062.36 272.55L1073.62 279.05L1073.62 292.05L1062.36 298.55L1051.1 292.05L1051.1 279.05zM1073.62 292.05L1084.88 298.55L1084.88 311.55L1073.62 318.05L1062.36 311.55L1062.36 298.55zM1073.62 331.05L1084.88 337.55L1084.88 350.55L1073.62 357.05L1062.36 350.55L1062.36 337.55zM1062.36 350.55L1073.62 357.05L1073.62 370.05L1062.36 376.55L1051.1 370.05L1051.1 357.05zM1073.62 409.05L1084.88 415.55L1084.88 428.55L1073.62 435.05L1062.36 428.55L1062.36 415.55zM1062.36 428.55L1073.62 435.05L1073.62 448.05L1062.36 454.55L1051.1 448.05L1051.1 435.05zM1073.62 448.05L1084.88 454.55L1084.88 467.55L1073.62 474.05L1062.36 467.55L1062.36 454.55zM1062.36 467.55L1073.62 474.05L1073.62 487.05L1062.36 493.55L1051.1 487.05L1051.1 474.05zM1062.36 506.55L1073.62 513.05L1073.62 526.05L1062.36 532.55L1051.1 526.05L1051.1 513.05zM1062.36 623.55L1073.62 630.05L1073.62 643.05L1062.36 649.55L1051.1 643.05L1051.1 630.05zM1073.62 682.05L1084.88 688.55L1084.88 701.55L1073.62 708.05L1062.36 701.55L1062.36 688.55zM1073.62 721.05L1084.88 727.55L1084.88 740.55L1073.62 747.05L1062.36 740.55L1062.36 727.55zM1084.88 -0.45L1096.14 6.05L1096.14 19.05L1084.88 25.55L1073.62 19.05L1073.62 6.05zM1084.88 38.55L1096.14 45.05L1096.14 58.05L1084.88 64.55L1073.62 58.05L1073.62 45.05zM1096.14 136.05L1107.4 142.55L1107.4 155.55L1096.14 162.05L1084.88 155.55L1084.88 142.55zM1096.14 175.05L1107.4 181.55L1107.4 194.55L1096.14 201.05L1084.88 194.55L1084.88 181.55zM1084.88 311.55L1096.14 318.05L1096.14 331.05L1084.88 337.55L1073.62 331.05L1073.62 318.05zM1084.88 389.55L1096.14 396.05L1096.14 409.05L1084.88 415.55L1073.62 409.05L1073.62 396.05zM1084.88 506.55L1096.14 513.05L1096.14 526.05L1084.88 532.55L1073.62 526.05L1073.62 513.05zM1096.14 604.05L1107.4 610.55L1107.4 623.55L1096.14 630.05L1084.88 623.55L1084.88 610.55zM1084.88 662.55L1096.14 669.05L1096.14 682.05L1084.88 688.55L1073.62 682.05L1073.62 669.05zM1096.14 682.05L1107.4 688.55L1107.4 701.55L1096.14 708.05L1084.88 701.55L1084.88 688.55zM1084.88 779.55L1096.14 786.05L1096.14 799.05L1084.88 805.55L1073.62 799.05L1073.62 786.05zM1084.88 818.55L1096.14 825.05L1096.14 838.05L1084.88 844.55L1073.62 838.05L1073.62 825.05zM1118.66 58.05L1129.91 64.55L1129.91 77.55L1118.66 84.05L1107.4 77.55L1107.4 64.55zM1118.66 97.05L1129.91 103.55L1129.91 116.55L1118.66 123.05L1107.4 116.55L1107.4 103.55zM1118.66 253.05L1129.91 259.55L1129.91 272.55L1118.66 279.05L1107.4 272.55L1107.4 259.55zM1118.66 370.05L1129.91 376.55L1129.91 389.55L1118.66 396.05L1107.4 389.55L1107.4 376.55zM1118.66 487.05L1129.91 493.55L1129.91 506.55L1118.66 513.05L1107.4 506.55L1107.4 493.55zM1118.66 565.05L1129.91 571.55L1129.91 584.55L1118.66 591.05L1107.4 584.55L1107.4 571.55zM1118.66 604.05L1129.91 610.55L1129.91 623.55L1118.66 630.05L1107.4 623.55L1107.4 610.55zM1107.4 662.55L1118.66 669.05L1118.66 682.05L1107.4 688.55L1096.14 682.05L1096.14 669.05zM1107.4 740.55L1118.66 747.05L1118.66 760.05L1107.4 766.55L1096.14 760.05L1096.14 747.05zM1118.66 760.05L1129.91 766.55L1129.91 779.55L1118.66 786.05L1107.4 779.55L1107.4 766.55zM1107.4 779.55L1118.66 786.05L1118.66 799.05L1107.4 805.55L1096.14 799.05L1096.14 786.05zM1118.66 799.05L1129.91 805.55L1129.91 818.55L1118.66 825.05L1107.4 818.55L1107.4 805.55zM1107.4 818.55L1118.66 825.05L1118.66 838.05L1107.4 844.55L1096.14 838.05L1096.14 825.05zM1141.17 19.05L1152.43 25.55L1152.43 38.55L1141.17 45.05L1129.91 38.55L1129.91 25.55zM1141.17 175.05L1152.43 181.55L1152.43 194.55L1141.17 201.05L1129.91 194.55L1129.91 181.55zM1141.17 214.05L1152.43 220.55L1152.43 233.55L1141.17 240.05L1129.91 233.55L1129.91 220.55zM1141.17 253.05L1152.43 259.55L1152.43 272.55L1141.17 279.05L1129.91 272.55L1129.91 259.55zM1129.91 272.55L1141.17 279.05L1141.17 292.05L1129.91 298.55L1118.66 292.05L1118.66 279.05zM1141.17 370.05L1152.43 376.55L1152.43 389.55L1141.17 396.05L1129.91 389.55L1129.91 376.55zM1129.91 389.55L1141.17 396.05L1141.17 409.05L1129.91 415.55L1118.66 409.05L1118.66 396.05zM1141.17 409.05L1152.43 415.55L1152.43 428.55L1141.17 435.05L1129.91 428.55L1129.91 415.55zM1129.91 428.55L1141.17 435.05L1141.17 448.05L1129.91 454.55L1118.66 448.05L1118.66 435.05zM1141.17 448.05L1152.43 454.55L1152.43 467.55L1141.17 474.05L1129.91 467.55L1129.91 454.55zM1129.91 545.55L1141.17 552.05L1141.17 565.05L1129.91 571.55L1118.66 565.05L1118.66 552.05zM1141.17 643.05L1152.43 649.55L1152.43 662.55L1141.17 669.05L1129.91 662.55L1129.91 649.55zM1129.91 701.55L1141.17 708.05L1141.17 721.05L1129.91 727.55L1118.66 721.05L1118.66 708.05zM1129.91 818.55L1141.17 825.05L1141.17 838.05L1129.91 844.55L1118.66 838.05L1118.66 825.05zM1129.91 857.55L1141.17 864.05L1141.17 877.05L1129.91 883.55L1118.66 877.05L1118.66 864.05zM1152.43 -0.45L1163.69 6.05L1163.69 19.05L1152.43 25.55L1141.17 19.05L1141.17 6.05zM1152.43 38.55L1163.69 45.05L1163.69 58.05L1152.43 64.55L1141.17 58.05L1141.17 45.05zM1163.69 58.05L1174.95 64.55L1174.95 77.55L1163.69 84.05L1152.43 77.55L1152.43 64.55zM1152.43 155.55L1163.69 162.05L1163.69 175.05L1152.43 181.55L1141.17 175.05L1141.17 162.05zM1152.43 233.55L1163.69 240.05L1163.69 253.05L1152.43 259.55L1141.17 253.05L1141.17 240.05zM1163.69 292.05L1174.95 298.55L1174.95 311.55L1163.69 318.05L1152.43 311.55L1152.43 298.55zM1163.69 331.05L1174.95 337.55L1174.95 350.55L1163.69 357.05L1152.43 350.55L1152.43 337.55zM1163.69 370.05L1174.95 376.55L1174.95 389.55L1163.69 396.05L1152.43 389.55L1152.43 376.55zM1152.43 389.55L1163.69 396.05L1163.69 409.05L1152.43 415.55L1141.17 409.05L1141.17 396.05zM1152.43 428.55L1163.69 435.05L1163.69 448.05L1152.43 454.55L1141.17 448.05L1141.17 435.05zM1152.43 467.55L1163.69 474.05L1163.69 487.05L1152.43 493.55L1141.17 487.05L1141.17 474.05zM1163.69 526.05L1174.95 532.55L1174.95 545.55L1163.69 552.05L1152.43 545.55L1152.43 532.55zM1152.43 545.55L1163.69 552.05L1163.69 565.05L1152.43 571.55L1141.17 565.05L1141.17 552.05zM1152.43 623.55L1163.69 630.05L1163.69 643.05L1152.43 649.55L1141.17 643.05L1141.17 630.05zM1152.43 662.55L1163.69 669.05L1163.69 682.05L1152.43 688.55L1141.17 682.05L1141.17 669.05zM1152.43 701.55L1163.69 708.05L1163.69 721.05L1152.43 727.55L1141.17 721.05L1141.17 708.05zM1163.69 721.05L1174.95 727.55L1174.95 740.55L1163.69 747.05L1152.43 740.55L1152.43 727.55zM1152.43 818.55L1163.69 825.05L1163.69 838.05L1152.43 844.55L1141.17 838.05L1141.17 825.05zM1163.69 838.05L1174.95 844.55L1174.95 857.55L1163.69 864.05L1152.43 857.55L1152.43 844.55zM1152.43 857.55L1163.69 864.05L1163.69 877.05L1152.43 883.55L1141.17 877.05L1141.17 864.05zM1186.21 19.05L1197.47 25.55L1197.47 38.55L1186.21 45.05L1174.95 38.55L1174.95 25.55zM1174.95 38.55L1186.21 45.05L1186.21 58.05L1174.95 64.55L1163.69 58.05L1163.69 45.05zM1174.95 116.55L1186.21 123.05L1186.21 136.05L1174.95 142.55L1163.69 136.05L1163.69 123.05zM1174.95 194.55L1186.21 201.05L1186.21 214.05L1174.95 220.55L1163.69 214.05L1163.69 201.05zM1174.95 233.55L1186.21 240.05L1186.21 253.05L1174.95 259.55L1163.69 253.05L1163.69 240.05zM1174.95 467.55L1186.21 474.05L1186.21 487.05L1174.95 493.55L1163.69 487.05L1163.69 474.05zM1186.21 565.05L1197.47 571.55L1197.47 584.55L1186.21 591.05L1174.95 584.55L1174.95 571.55zM1174.95 623.55L1186.21 630.05L1186.21 643.05L1174.95 649.55L1163.69 643.05L1163.69 630.05zM1186.21 643.05L1197.47 649.55L1197.47 662.55L1186.21 669.05L1174.95 662.55L1174.95 649.55zM1174.95 662.55L1186.21 669.05L1186.21 682.05L1174.95 688.55L1163.69 682.05L1163.69 669.05zM1186.21 760.05L1197.47 766.55L1197.47 779.55L1186.21 786.05L1174.95 779.55L1174.95 766.55zM1174.95 779.55L1186.21 786.05L1186.21 799.05L1174.95 805.55L1163.69 799.05L1163.69 786.05zM1186.21 799.05L1197.47 805.55L1197.47 818.55L1186.21 825.05L1174.95 818.55L1174.95 805.55zM1197.47 -0.45L1208.73 6.05L1208.73 19.05L1197.47 25.55L1186.21 19.05L1186.21 6.05zM1197.47 38.55L1208.73 45.05L1208.73 58.05L1197.47 64.55L1186.21 58.05L1186.21 45.05zM1208.73 97.05L1219.98 103.55L1219.98 116.55L1208.73 123.05L1197.47 116.55L1197.47 103.55zM1208.73 136.05L1219.98 142.55L1219.98 155.55L1208.73 162.05L1197.47 155.55L1197.47 142.55zM1208.73 175.05L1219.98 181.55L1219.98 194.55L1208.73 201.05L1197.47 194.55L1197.47 181.55zM1197.47 233.55L1208.73 240.05L1208.73 253.05L1197.47 259.55L1186.21 253.05L1186.21 240.05zM1197.47 272.55L1208.73 279.05L1208.73 292.05L1197.47 298.55L1186.21 292.05L1186.21 279.05zM1208.73 292.05L1219.98 298.55L1219.98 311.55L1208.73 318.05L1197.47 311.55L1197.47 298.55zM1197.47 311.55L1208.73 318.05L1208.73 331.05L1197.47 337.55L1186.21 331.05L1186.21 318.05zM1208.73 370.05L1219.98 376.55L1219.98 389.55L1208.73 396.05L1197.47 389.55L1197.47 376.55zM1197.47 506.55L1208.73 513.05L1208.73 526.05L1197.47 532.55L1186.21 526.05L1186.21 513.05zM1208.73 565.05L1219.98 571.55L1219.98 584.55L1208.73 591.05L1197.47 584.55L1197.47 571.55zM1197.47 623.55L1208.73 630.05L1208.73 643.05L1197.47 649.55L1186.21 643.05L1186.21 630.05zM1208.73 643.05L1219.98 649.55L1219.98 662.55L1208.73 669.05L1197.47 662.55L1197.47 649.55zM1197.47 701.55L1208.73 708.05L1208.73 721.05L1197.47 727.55L1186.21 721.05L1186.21 708.05zM1208.73 721.05L1219.98 727.55L1219.98 740.55L1208.73 747.05L1197.47 740.55L1197.47 727.55zM1197.47 779.55L1208.73 786.05L1208.73 799.05L1197.47 805.55L1186.21 799.05L1186.21 786.05zM1197.47 818.55L1208.73 825.05L1208.73 838.05L1197.47 844.55L1186.21 838.05L1186.21 825.05zM1208.73 838.05L1219.98 844.55L1219.98 857.55L1208.73 864.05L1197.47 857.55L1197.47 844.55zM1219.98 -0.45L1231.24 6.05L1231.24 19.05L1219.98 25.55L1208.73 19.05L1208.73 6.05zM1231.24 19.05L1242.5 25.55L1242.5 38.55L1231.24 45.05L1219.98 38.55L1219.98 25.55zM1219.98 38.55L1231.24 45.05L1231.24 58.05L1219.98 64.55L1208.73 58.05L1208.73 45.05zM1231.24 97.05L1242.5 103.55L1242.5 116.55L1231.24 123.05L1219.98 116.55L1219.98 103.55zM1219.98 116.55L1231.24 123.05L1231.24 136.05L1219.98 142.55L1208.73 136.05L1208.73 123.05zM1219.98 194.55L1231.24 201.05L1231.24 214.05L1219.98 220.55L1208.73 214.05L1208.73 201.05zM1231.24 331.05L1242.5 337.55L1242.5 350.55L1231.24 357.05L1219.98 350.55L1219.98 337.55zM1219.98 428.55L1231.24 435.05L1231.24 448.05L1219.98 454.55L1208.73 448.05L1208.73 435.05zM1219.98 467.55L1231.24 474.05L1231.24 487.05L1219.98 493.55L1208.73 487.05L1208.73 474.05zM1231.24 760.05L1242.5 766.55L1242.5 779.55L1231.24 786.05L1219.98 779.55L1219.98 766.55zM1219.98 818.55L1231.24 825.05L1231.24 838.05L1219.98 844.55L1208.73 838.05L1208.73 825.05zM1242.5 38.55L1253.76 45.05L1253.76 58.05L1242.5 64.55L1231.24 58.05L1231.24 45.05zM1242.5 116.55L1253.76 123.05L1253.76 136.05L1242.5 142.55L1231.24 136.05L1231.24 123.05zM1242.5 233.55L1253.76 240.05L1253.76 253.05L1242.5 259.55L1231.24 253.05L1231.24 240.05zM1253.76 331.05L1265.02 337.55L1265.02 350.55L1253.76 357.05L1242.5 350.55L1242.5 337.55zM1253.76 409.05L1265.02 415.55L1265.02 428.55L1253.76 435.05L1242.5 428.55L1242.5 415.55zM1253.76 565.05L1265.02 571.55L1265.02 584.55L1253.76 591.05L1242.5 584.55L1242.5 571.55zM1253.76 838.05L1265.02 844.55L1265.02 857.55L1253.76 864.05L1242.5 857.55L1242.5 844.55zM1242.5 857.55L1253.76 864.05L1253.76 877.05L1242.5 883.55L1231.24 877.05L1231.24 864.05zM1265.02 38.55L1276.28 45.05L1276.28 58.05L1265.02 64.55L1253.76 58.05L1253.76 45.05zM1276.28 58.05L1287.54 64.55L1287.54 77.55L1276.28 84.05L1265.02 77.55L1265.02 64.55zM1276.28 97.05L1287.54 103.55L1287.54 116.55L1276.28 123.05L1265.02 116.55L1265.02 103.55zM1276.28 136.05L1287.54 142.55L1287.54 155.55L1276.28 162.05L1265.02 155.55L1265.02 142.55zM1265.02 272.55L1276.28 279.05L1276.28 292.05L1265.02 298.55L1253.76 292.05L1253.76 279.05zM1265.02 311.55L1276.28 318.05L1276.28 331.05L1265.02 337.55L1253.76 331.05L1253.76 318.05zM1276.28 331.05L1287.54 337.55L1287.54 350.55L1276.28 357.05L1265.02 350.55L1265.02 337.55zM1265.02 350.55L1276.28 357.05L1276.28 370.05L1265.02 376.55L1253.76 370.05L1253.76 357.05zM1276.28 448.05L1287.54 454.55L1287.54 467.55L1276.28 474.05L1265.02 467.55L1265.02 454.55zM1265.02 467.55L1276.28 474.05L1276.28 487.05L1265.02 493.55L1253.76 487.05L1253.76 474.05zM1265.02 506.55L1276.28 513.05L1276.28 526.05L1265.02 532.55L1253.76 526.05L1253.76 513.05zM1276.28 526.05L1287.54 532.55L1287.54 545.55L1276.28 552.05L1265.02 545.55L1265.02 532.55zM1265.02 662.55L1276.28 669.05L1276.28 682.05L1265.02 688.55L1253.76 682.05L1253.76 669.05zM1276.28 682.05L1287.54 688.55L1287.54 701.55L1276.28 708.05L1265.02 701.55L1265.02 688.55zM1265.02 740.55L1276.28 747.05L1276.28 760.05L1265.02 766.55L1253.76 760.05L1253.76 747.05zM1276.28 760.05L1287.54 766.55L1287.54 779.55L1276.28 786.05L1265.02 779.55L1265.02 766.55zM1276.28 799.05L1287.54 805.55L1287.54 818.55L1276.28 825.05L1265.02 818.55L1265.02 805.55zM1265.02 857.55L1276.28 864.05L1276.28 877.05L1265.02 883.55L1253.76 877.05L1253.76 864.05zM1287.54 38.55L1298.79 45.05L1298.79 58.05L1287.54 64.55L1276.28 58.05L1276.28 45.05zM1298.79 58.05L1310.05 64.55L1310.05 77.55L1298.79 84.05L1287.54 77.55L1287.54 64.55zM1298.79 97.05L1310.05 103.55L1310.05 116.55L1298.79 123.05L1287.54 116.55L1287.54 103.55zM1287.54 194.55L1298.79 201.05L1298.79 214.05L1287.54 220.55L1276.28 214.05L1276.28 201.05zM1298.79 253.05L1310.05 259.55L1310.05 272.55L1298.79 279.05L1287.54 272.55L1287.54 259.55zM1298.79 292.05L1310.05 298.55L1310.05 311.55L1298.79 318.05L1287.54 311.55L1287.54 298.55zM1298.79 331.05L1310.05 337.55L1310.05 350.55L1298.79 357.05L1287.54 350.55L1287.54 337.55zM1287.54 428.55L1298.79 435.05L1298.79 448.05L1287.54 454.55L1276.28 448.05L1276.28 435.05zM1298.79 487.05L1310.05 493.55L1310.05 506.55L1298.79 513.05L1287.54 506.55L1287.54 493.55zM1287.54 545.55L1298.79 552.05L1298.79 565.05L1287.54 571.55L1276.28 565.05L1276.28 552.05zM1287.54 623.55L1298.79 630.05L1298.79 643.05L1287.54 649.55L1276.28 643.05L1276.28 630.05zM1298.79 643.05L1310.05 649.55L1310.05 662.55L1298.79 669.05L1287.54 662.55L1287.54 649.55zM1298.79 682.05L1310.05 688.55L1310.05 701.55L1298.79 708.05L1287.54 701.55L1287.54 688.55zM1287.54 701.55L1298.79 708.05L1298.79 721.05L1287.54 727.55L1276.28 721.05L1276.28 708.05zM1287.54 740.55L1298.79 747.05L1298.79 760.05L1287.54 766.55L1276.28 760.05L1276.28 747.05zM1287.54 779.55L1298.79 786.05L1298.79 799.05L1287.54 805.55L1276.28 799.05L1276.28 786.05zM1287.54 818.55L1298.79 825.05L1298.79 838.05L1287.54 844.55L1276.28 838.05L1276.28 825.05zM1287.54 857.55L1298.79 864.05L1298.79 877.05L1287.54 883.55L1276.28 877.05L1276.28 864.05zM1321.31 19.05L1332.57 25.55L1332.57 38.55L1321.31 45.05L1310.05 38.55L1310.05 25.55zM1310.05 77.55L1321.31 84.05L1321.31 97.05L1310.05 103.55L1298.79 97.05L1298.79 84.05zM1321.31 136.05L1332.57 142.55L1332.57 155.55L1321.31 162.05L1310.05 155.55L1310.05 142.55zM1310.05 194.55L1321.31 201.05L1321.31 214.05L1310.05 220.55L1298.79 214.05L1298.79 201.05zM1321.31 253.05L1332.57 259.55L1332.57 272.55L1321.31 279.05L1310.05 272.55L1310.05 259.55zM1310.05 311.55L1321.31 318.05L1321.31 331.05L1310.05 337.55L1298.79 331.05L1298.79 318.05zM1321.31 409.05L1332.57 415.55L1332.57 428.55L1321.31 435.05L1310.05 428.55L1310.05 415.55zM1321.31 448.05L1332.57 454.55L1332.57 467.55L1321.31 474.05L1310.05 467.55L1310.05 454.55zM1310.05 584.55L1321.31 591.05L1321.31 604.05L1310.05 610.55L1298.79 604.05L1298.79 591.05zM1321.31 604.05L1332.57 610.55L1332.57 623.55L1321.31 630.05L1310.05 623.55L1310.05 610.55zM1321.31 643.05L1332.57 649.55L1332.57 662.55L1321.31 669.05L1310.05 662.55L1310.05 649.55zM1310.05 662.55L1321.31 669.05L1321.31 682.05L1310.05 688.55L1298.79 682.05L1298.79 669.05zM1310.05 701.55L1321.31 708.05L1321.31 721.05L1310.05 727.55L1298.79 721.05L1298.79 708.05zM1310.05 857.55L1321.31 864.05L1321.31 877.05L1310.05 883.55L1298.79 877.05L1298.79 864.05zM1343.83 58.05L1355.09 64.55L1355.09 77.55L1343.83 84.05L1332.57 77.55L1332.57 64.55zM1343.83 97.05L1355.09 103.55L1355.09 116.55L1343.83 123.05L1332.57 116.55L1332.57 103.55zM1332.57 155.55L1343.83 162.05L1343.83 175.05L1332.57 181.55L1321.31 175.05L1321.31 162.05zM1343.83 175.05L1355.09 181.55L1355.09 194.55L1343.83 201.05L1332.57 194.55L1332.57 181.55zM1343.83 214.05L1355.09 220.55L1355.09 233.55L1343.83 240.05L1332.57 233.55L1332.57 220.55zM1343.83 292.05L1355.09 298.55L1355.09 311.55L1343.83 318.05L1332.57 311.55L1332.57 298.55zM1332.57 350.55L1343.83 357.05L1343.83 370.05L1332.57 376.55L1321.31 370.05L1321.31 357.05zM1343.83 448.05L1355.09 454.55L1355.09 467.55L1343.83 474.05L1332.57 467.55L1332.57 454.55zM1343.83 487.05L1355.09 493.55L1355.09 506.55L1343.83 513.05L1332.57 506.55L1332.57 493.55zM1343.83 526.05L1355.09 532.55L1355.09 545.55L1343.83 552.05L1332.57 545.55L1332.57 532.55zM1343.83 604.05L1355.09 610.55L1355.09 623.55L1343.83 630.05L1332.57 623.55L1332.57 610.55zM1332.57 623.55L1343.83 630.05L1343.83 643.05L1332.57 649.55L1321.31 643.05L1321.31 630.05zM1343.83 643.05L1355.09 649.55L1355.09 662.55L1343.83 669.05L1332.57 662.55L1332.57 649.55zM1332.57 701.55L1343.83 708.05L1343.83 721.05L1332.57 727.55L1321.31 721.05L1321.31 708.05zM1332.57 740.55L1343.83 747.05L1343.83 760.05L1332.57 766.55L1321.31 760.05L1321.31 747.05zM1332.57 818.55L1343.83 825.05L1343.83 838.05L1332.57 844.55L1321.31 838.05L1321.31 825.05zM1332.57 857.55L1343.83 864.05L1343.83 877.05L1332.57 883.55L1321.31 877.05L1321.31 864.05zM1366.35 58.05L1377.61 64.55L1377.61 77.55L1366.35 84.05L1355.09 77.55L1355.09 64.55zM1366.35 97.05L1377.61 103.55L1377.61 116.55L1366.35 123.05L1355.09 116.55L1355.09 103.55zM1366.35 136.05L1377.61 142.55L1377.61 155.55L1366.35 162.05L1355.09 155.55L1355.09 142.55zM1355.09 272.55L1366.35 279.05L1366.35 292.05L1355.09 298.55L1343.83 292.05L1343.83 279.05zM1366.35 292.05L1377.61 298.55L1377.61 311.55L1366.35 318.05L1355.09 311.55L1355.09 298.55zM1366.35 409.05L1377.61 415.55L1377.61 428.55L1366.35 435.05L1355.09 428.55L1355.09 415.55zM1355.09 428.55L1366.35 435.05L1366.35 448.05L1355.09 454.55L1343.83 448.05L1343.83 435.05zM1355.09 467.55L1366.35 474.05L1366.35 487.05L1355.09 493.55L1343.83 487.05L1343.83 474.05zM1366.35 487.05L1377.61 493.55L1377.61 506.55L1366.35 513.05L1355.09 506.55L1355.09 493.55zM1366.35 526.05L1377.61 532.55L1377.61 545.55L1366.35 552.05L1355.09 545.55L1355.09 532.55zM1366.35 565.05L1377.61 571.55L1377.61 584.55L1366.35 591.05L1355.09 584.55L1355.09 571.55zM1355.09 584.55L1366.35 591.05L1366.35 604.05L1355.09 610.55L1343.83 604.05L1343.83 591.05zM1366.35 643.05L1377.61 649.55L1377.61 662.55L1366.35 669.05L1355.09 662.55L1355.09 649.55zM1355.09 662.55L1366.35 669.05L1366.35 682.05L1355.09 688.55L1343.83 682.05L1343.83 669.05zM1355.09 701.55L1366.35 708.05L1366.35 721.05L1355.09 727.55L1343.83 721.05L1343.83 708.05zM1355.09 740.55L1366.35 747.05L1366.35 760.05L1355.09 766.55L1343.83 760.05L1343.83 747.05zM1388.86 58.05L1400.12 64.55L1400.12 77.55L1388.86 84.05L1377.61 77.55L1377.61 64.55zM1377.61 77.55L1388.86 84.05L1388.86 97.05L1377.61 103.55L1366.35 97.05L1366.35 84.05zM1388.86 136.05L1400.12 142.55L1400.12 155.55L1388.86 162.05L1377.61 155.55L1377.61 142.55zM1377.61 155.55L1388.86 162.05L1388.86 175.05L1377.61 181.55L1366.35 175.05L1366.35 162.05zM1388.86 175.05L1400.12 181.55L1400.12 194.55L1388.86 201.05L1377.61 194.55L1377.61 181.55zM1377.61 194.55L1388.86 201.05L1388.86 214.05L1377.61 220.55L1366.35 214.05L1366.35 201.05zM1388.86 214.05L1400.12 220.55L1400.12 233.55L1388.86 240.05L1377.61 233.55L1377.61 220.55zM1377.61 272.55L1388.86 279.05L1388.86 292.05L1377.61 298.55L1366.35 292.05L1366.35 279.05zM1388.86 292.05L1400.12 298.55L1400.12 311.55L1388.86 318.05L1377.61 311.55L1377.61 298.55zM1377.61 311.55L1388.86 318.05L1388.86 331.05L1377.61 337.55L1366.35 331.05L1366.35 318.05zM1377.61 350.55L1388.86 357.05L1388.86 370.05L1377.61 376.55L1366.35 370.05L1366.35 357.05zM1388.86 409.05L1400.12 415.55L1400.12 428.55L1388.86 435.05L1377.61 428.55L1377.61 415.55zM1388.86 448.05L1400.12 454.55L1400.12 467.55L1388.86 474.05L1377.61 467.55L1377.61 454.55zM1388.86 604.05L1400.12 610.55L1400.12 623.55L1388.86 630.05L1377.61 623.55L1377.61 610.55zM1377.61 623.55L1388.86 630.05L1388.86 643.05L1377.61 649.55L1366.35 643.05L1366.35 630.05zM1388.86 643.05L1400.12 649.55L1400.12 662.55L1388.86 669.05L1377.61 662.55L1377.61 649.55zM1377.61 779.55L1388.86 786.05L1388.86 799.05L1377.61 805.55L1366.35 799.05L1366.35 786.05zM1400.12 -0.45L1411.38 6.05L1411.38 19.05L1400.12 25.55L1388.86 19.05L1388.86 6.05zM1411.38 19.05L1422.64 25.55L1422.64 38.55L1411.38 45.05L1400.12 38.55L1400.12 25.55zM1411.38 331.05L1422.64 337.55L1422.64 350.55L1411.38 357.05L1400.12 350.55L1400.12 337.55zM1400.12 389.55L1411.38 396.05L1411.38 409.05L1400.12 415.55L1388.86 409.05L1388.86 396.05zM1411.38 409.05L1422.64 415.55L1422.64 428.55L1411.38 435.05L1400.12 428.55L1400.12 415.55zM1400.12 428.55L1411.38 435.05L1411.38 448.05L1400.12 454.55L1388.86 448.05L1388.86 435.05zM1411.38 487.05L1422.64 493.55L1422.64 506.55L1411.38 513.05L1400.12 506.55L1400.12 493.55zM1400.12 545.55L1411.38 552.05L1411.38 565.05L1400.12 571.55L1388.86 565.05L1388.86 552.05zM1400.12 584.55L1411.38 591.05L1411.38 604.05L1400.12 610.55L1388.86 604.05L1388.86 591.05zM1411.38 643.05L1422.64 649.55L1422.64 662.55L1411.38 669.05L1400.12 662.55L1400.12 649.55zM1400.12 662.55L1411.38 669.05L1411.38 682.05L1400.12 688.55L1388.86 682.05L1388.86 669.05zM1433.9 97.05L1445.16 103.55L1445.16 116.55L1433.9 123.05L1422.64 116.55L1422.64 103.55zM1433.9 136.05L1445.16 142.55L1445.16 155.55L1433.9 162.05L1422.64 155.55L1422.64 142.55zM1422.64 155.55L1433.9 162.05L1433.9 175.05L1422.64 181.55L1411.38 175.05L1411.38 162.05zM1422.64 194.55L1433.9 201.05L1433.9 214.05L1422.64 220.55L1411.38 214.05L1411.38 201.05zM1433.9 253.05L1445.16 259.55L1445.16 272.55L1433.9 279.05L1422.64 272.55L1422.64 259.55zM1433.9 292.05L1445.16 298.55L1445.16 311.55L1433.9 318.05L1422.64 311.55L1422.64 298.55zM1433.9 331.05L1445.16 337.55L1445.16 350.55L1433.9 357.05L1422.64 350.55L1422.64 337.55zM1422.64 545.55L1433.9 552.05L1433.9 565.05L1422.64 571.55L1411.38 565.05L1411.38 552.05zM1422.64 623.55L1433.9 630.05L1433.9 643.05L1422.64 649.55L1411.38 643.05L1411.38 630.05zM1422.64 740.55L1433.9 747.05L1433.9 760.05L1422.64 766.55L1411.38 760.05L1411.38 747.05zM1433.9 799.05L1445.16 805.55L1445.16 818.55L1433.9 825.05L1422.64 818.55L1422.64 805.55zM1422.64 857.55L1433.9 864.05L1433.9 877.05L1422.64 883.55L1411.38 877.05L1411.38 864.05z" stroke="rgba(52, 110, 169, 0.22)" stroke-width="2"></path></g><defs><mask id="SvgjsMask1147"><rect width="1440" height="850" fill="#ffffff"></rect></mask></defs></svg>