<svg id="visual" viewBox="0 0 900 600" width="900" height="600" xmlns="http://www.w3.org/2000/svg" xmlns:xlink="http://www.w3.org/1999/xlink" version="1.1"><path d="M0 85L10.7 87C21.3 89 42.7 93 64.2 82C85.7 71 107.3 45 128.8 32C150.3 19 171.7 19 193 22C214.3 25 235.7 31 257 36C278.3 41 299.7 45 321.2 43C342.7 41 364.3 33 385.8 37C407.3 41 428.7 57 450 65C471.3 73 492.7 73 514.2 68C535.7 63 557.3 53 578.8 44C600.3 35 621.7 27 643 34C664.3 41 685.7 63 707 69C728.3 75 749.7 65 771.2 65C792.7 65 814.3 75 835.8 71C857.3 67 878.7 49 889.3 40L900 31L900 0L889.3 0C878.7 0 857.3 0 835.8 0C814.3 0 792.7 0 771.2 0C749.7 0 728.3 0 707 0C685.7 0 664.3 0 643 0C621.7 0 600.3 0 578.8 0C557.3 0 535.7 0 514.2 0C492.7 0 471.3 0 450 0C428.7 0 407.3 0 385.8 0C364.3 0 342.7 0 321.2 0C299.7 0 278.3 0 257 0C235.7 0 214.3 0 193 0C171.7 0 150.3 0 128.8 0C107.3 0 85.7 0 64.2 0C42.7 0 21.3 0 10.7 0L0 0Z" fill="#6198ff"></path><path d="M0 115L10.7 115C21.3 115 42.7 115 64.2 104C85.7 93 107.3 71 128.8 60C150.3 49 171.7 49 193 54C214.3 59 235.7 69 257 75C278.3 81 299.7 83 321.2 84C342.7 85 364.3 85 385.8 86C407.3 87 428.7 89 450 91C471.3 93 492.7 95 514.2 92C535.7 89 557.3 81 578.8 74C600.3 67 621.7 61 643 71C664.3 81 685.7 107 707 114C728.3 121 749.7 109 771.2 110C792.7 111 814.3 125 835.8 122C857.3 119 878.7 99 889.3 89L900 79L900 29L889.3 38C878.7 47 857.3 65 835.8 69C814.3 73 792.7 63 771.2 63C749.7 63 728.3 73 707 67C685.7 61 664.3 39 643 32C621.7 25 600.3 33 578.8 42C557.3 51 535.7 61 514.2 66C492.7 71 471.3 71 450 63C428.7 55 407.3 39 385.8 35C364.3 31 342.7 39 321.2 41C299.7 43 278.3 39 257 34C235.7 29 214.3 23 193 20C171.7 17 150.3 17 128.8 30C107.3 43 85.7 69 64.2 80C42.7 91 21.3 87 10.7 85L0 83Z" fill="#4c8aff"></path><path d="M0 187L10.7 185C21.3 183 42.7 179 64.2 160C85.7 141 107.3 107 128.8 104C150.3 101 171.7 129 193 139C214.3 149 235.7 141 257 135C278.3 129 299.7 125 321.2 131C342.7 137 364.3 153 385.8 155C407.3 157 428.7 145 450 152C471.3 159 492.7 185 514.2 179C535.7 173 557.3 135 578.8 120C600.3 105 621.7 113 643 128C664.3 143 685.7 165 707 167C728.3 169 749.7 151 771.2 151C792.7 151 814.3 169 835.8 165C857.3 161 878.7 135 889.3 122L900 109L900 77L889.3 87C878.7 97 857.3 117 835.8 120C814.3 123 792.7 109 771.2 108C749.7 107 728.3 119 707 112C685.7 105 664.3 79 643 69C621.7 59 600.3 65 578.8 72C557.3 79 535.7 87 514.2 90C492.7 93 471.3 91 450 89C428.7 87 407.3 85 385.8 84C364.3 83 342.7 83 321.2 82C299.7 81 278.3 79 257 73C235.7 67 214.3 57 193 52C171.7 47 150.3 47 128.8 58C107.3 69 85.7 91 64.2 102C42.7 113 21.3 113 10.7 113L0 113Z" fill="#367cff"></path><path d="M0 229L10.7 222C21.3 215 42.7 201 64.2 184C85.7 167 107.3 147 128.8 147C150.3 147 171.7 167 193 179C214.3 191 235.7 195 257 195C278.3 195 299.7 191 321.2 194C342.7 197 364.3 207 385.8 208C407.3 209 428.7 201 450 203C471.3 205 492.7 217 514.2 210C535.7 203 557.3 177 578.8 170C600.3 163 621.7 175 643 191C664.3 207 685.7 227 707 221C728.3 215 749.7 183 771.2 183C792.7 183 814.3 215 835.8 217C857.3 219 878.7 191 889.3 177L900 163L900 107L889.3 120C878.7 133 857.3 159 835.8 163C814.3 167 792.7 149 771.2 149C749.7 149 728.3 167 707 165C685.7 163 664.3 141 643 126C621.7 111 600.3 103 578.8 118C557.3 133 535.7 171 514.2 177C492.7 183 471.3 157 450 150C428.7 143 407.3 155 385.8 153C364.3 151 342.7 135 321.2 129C299.7 123 278.3 127 257 133C235.7 139 214.3 147 193 137C171.7 127 150.3 99 128.8 102C107.3 105 85.7 139 64.2 158C42.7 177 21.3 181 10.7 183L0 185Z" fill="#196eff"></path><path d="M0 325L10.7 327C21.3 329 42.7 333 64.2 330C85.7 327 107.3 317 128.8 327C150.3 337 171.7 367 193 389C214.3 411 235.7 425 257 406C278.3 387 299.7 335 321.2 323C342.7 311 364.3 339 385.8 352C407.3 365 428.7 363 450 355C471.3 347 492.7 333 514.2 321C535.7 309 557.3 299 578.8 315C600.3 331 621.7 373 643 378C664.3 383 685.7 351 707 353C728.3 355 749.7 391 771.2 396C792.7 401 814.3 375 835.8 365C857.3 355 878.7 361 889.3 364L900 367L900 161L889.3 175C878.7 189 857.3 217 835.8 215C814.3 213 792.7 181 771.2 181C749.7 181 728.3 213 707 219C685.7 225 664.3 205 643 189C621.7 173 600.3 161 578.8 168C557.3 175 535.7 201 514.2 208C492.7 215 471.3 203 450 201C428.7 199 407.3 207 385.8 206C364.3 205 342.7 195 321.2 192C299.7 189 278.3 193 257 193C235.7 193 214.3 189 193 177C171.7 165 150.3 145 128.8 145C107.3 145 85.7 165 64.2 182C42.7 199 21.3 213 10.7 220L0 227Z" fill="#0062f5"></path><path d="M0 355L10.7 364C21.3 373 42.7 391 64.2 394C85.7 397 107.3 385 128.8 397C150.3 409 171.7 445 193 462C214.3 479 235.7 477 257 451C278.3 425 299.7 375 321.2 366C342.7 357 364.3 389 385.8 401C407.3 413 428.7 405 450 395C471.3 385 492.7 373 514.2 368C535.7 363 557.3 365 578.8 380C600.3 395 621.7 423 643 425C664.3 427 685.7 403 707 409C728.3 415 749.7 451 771.2 456C792.7 461 814.3 435 835.8 418C857.3 401 878.7 393 889.3 389L900 385L900 365L889.3 362C878.7 359 857.3 353 835.8 363C814.3 373 792.7 399 771.2 394C749.7 389 728.3 353 707 351C685.7 349 664.3 381 643 376C621.7 371 600.3 329 578.8 313C557.3 297 535.7 307 514.2 319C492.7 331 471.3 345 450 353C428.7 361 407.3 363 385.8 350C364.3 337 342.7 309 321.2 321C299.7 333 278.3 385 257 404C235.7 423 214.3 409 193 387C171.7 365 150.3 335 128.8 325C107.3 315 85.7 325 64.2 328C42.7 331 21.3 327 10.7 325L0 323Z" fill="#005be1"></path><path d="M0 457L10.7 471C21.3 485 42.7 513 64.2 515C85.7 517 107.3 493 128.8 488C150.3 483 171.7 497 193 513C214.3 529 235.7 547 257 527C278.3 507 299.7 449 321.2 435C342.7 421 364.3 451 385.8 457C407.3 463 428.7 445 450 440C471.3 435 492.7 443 514.2 441C535.7 439 557.3 427 578.8 443C600.3 459 621.7 503 643 508C664.3 513 685.7 479 707 474C728.3 469 749.7 493 771.2 492C792.7 491 814.3 465 835.8 459C857.3 453 878.7 467 889.3 474L900 481L900 383L889.3 387C878.7 391 857.3 399 835.8 416C814.3 433 792.7 459 771.2 454C749.7 449 728.3 413 707 407C685.7 401 664.3 425 643 423C621.7 421 600.3 393 578.8 378C557.3 363 535.7 361 514.2 366C492.7 371 471.3 383 450 393C428.7 403 407.3 411 385.8 399C364.3 387 342.7 355 321.2 364C299.7 373 278.3 423 257 449C235.7 475 214.3 477 193 460C171.7 443 150.3 407 128.8 395C107.3 383 85.7 395 64.2 392C42.7 389 21.3 371 10.7 362L0 353Z" fill="#0053ce"></path><path d="M0 601L10.7 601C21.3 601 42.7 601 64.2 601C85.7 601 107.3 601 128.8 601C150.3 601 171.7 601 193 601C214.3 601 235.7 601 257 601C278.3 601 299.7 601 321.2 601C342.7 601 364.3 601 385.8 601C407.3 601 428.7 601 450 601C471.3 601 492.7 601 514.2 601C535.7 601 557.3 601 578.8 601C600.3 601 621.7 601 643 601C664.3 601 685.7 601 707 601C728.3 601 749.7 601 771.2 601C792.7 601 814.3 601 835.8 601C857.3 601 878.7 601 889.3 601L900 601L900 479L889.3 472C878.7 465 857.3 451 835.8 457C814.3 463 792.7 489 771.2 490C749.7 491 728.3 467 707 472C685.7 477 664.3 511 643 506C621.7 501 600.3 457 578.8 441C557.3 425 535.7 437 514.2 439C492.7 441 471.3 433 450 438C428.7 443 407.3 461 385.8 455C364.3 449 342.7 419 321.2 433C299.7 447 278.3 505 257 525C235.7 545 214.3 527 193 511C171.7 495 150.3 481 128.8 486C107.3 491 85.7 515 64.2 513C42.7 511 21.3 483 10.7 469L0 455Z" fill="#004cbb"></path></svg>